<mxfile host="app.diagrams.net" modified="2022-05-10T09:27:17.986Z" agent="5.0 (X11; Linux x86_64) AppleWebKit/537.36 (KHTML, like Gecko) Chrome/101.0.4951.54 Safari/537.36" etag="dVVbvxvi2rwvHaI0DIFw" version="18.0.2" type="github">
  <diagram id="inhpslFRgeZznWk5Xytv" name="Page-1">
    <mxGraphModel dx="3769" dy="1162" grid="1" gridSize="10" guides="1" tooltips="1" connect="1" arrows="1" fold="1" page="1" pageScale="1" pageWidth="827" pageHeight="1169" math="0" shadow="0">
      <root>
        <mxCell id="0" />
        <mxCell id="1" parent="0" />
        <mxCell id="4w_kfiBpFiU5m1Fu5KsI-4" value="" style="rounded=0;whiteSpace=wrap;html=1;movable=1;resizable=1;rotatable=1;deletable=1;editable=1;connectable=1;" vertex="1" parent="1">
          <mxGeometry x="40" y="20" width="1460" height="1010" as="geometry" />
        </mxCell>
        <mxCell id="4w_kfiBpFiU5m1Fu5KsI-5" value="" style="rounded=0;whiteSpace=wrap;html=1;fillColor=#f9f7ed;strokeColor=#36393d;movable=0;resizable=0;rotatable=0;deletable=0;editable=0;connectable=0;" vertex="1" parent="1">
          <mxGeometry x="230" y="20" width="1270" height="1010" as="geometry" />
        </mxCell>
        <mxCell id="HOcWKpLbceG71wfPBprw-25" value="Upcoming deadlines" style="rounded=0;whiteSpace=wrap;html=1;labelBackgroundColor=none;fontSize=15;verticalAlign=top;fontStyle=1" parent="1" vertex="1">
          <mxGeometry x="300" y="170" width="650" height="520" as="geometry" />
        </mxCell>
        <mxCell id="HOcWKpLbceG71wfPBprw-163" value="Recent Labsys Jobs" style="rounded=0;whiteSpace=wrap;html=1;labelBackgroundColor=none;fontSize=15;verticalAlign=top;fontStyle=1;" parent="1" vertex="1">
          <mxGeometry x="1030" y="715" width="370" height="250" as="geometry" />
        </mxCell>
        <mxCell id="HOcWKpLbceG71wfPBprw-164" value="" style="shape=table;html=1;whiteSpace=wrap;startSize=0;container=1;collapsible=0;childLayout=tableLayout;rounded=0;labelBackgroundColor=none;fontSize=12;labelBorderColor=none;shadow=0;swimlaneLine=0;sketch=0;fillColor=#f5f5f5;fontColor=#333333;strokeColor=#666666;" parent="1" vertex="1">
          <mxGeometry x="1053.5" y="755" width="323" height="196.62000000000057" as="geometry" />
        </mxCell>
        <mxCell id="HOcWKpLbceG71wfPBprw-165" value="" style="shape=tableRow;horizontal=0;startSize=0;swimlaneHead=0;swimlaneBody=0;top=0;left=0;bottom=0;right=0;collapsible=0;dropTarget=0;fillColor=none;points=[[0,0.5],[1,0.5]];portConstraint=eastwest;rounded=0;labelBackgroundColor=none;fontSize=15;fontColor=#FFFFFF;" parent="HOcWKpLbceG71wfPBprw-164" vertex="1">
          <mxGeometry width="323" height="42" as="geometry" />
        </mxCell>
        <mxCell id="HOcWKpLbceG71wfPBprw-166" value="&lt;font color=&quot;#000000&quot; style=&quot;font-size: 15px;&quot;&gt;Task Id&lt;/font&gt;" style="shape=partialRectangle;html=1;whiteSpace=wrap;connectable=0;fillColor=none;top=0;left=0;bottom=0;right=0;overflow=hidden;rounded=0;labelBackgroundColor=none;fontSize=15;fontColor=#FFFFFF;" parent="HOcWKpLbceG71wfPBprw-165" vertex="1">
          <mxGeometry width="73" height="42" as="geometry">
            <mxRectangle width="73" height="42" as="alternateBounds" />
          </mxGeometry>
        </mxCell>
        <mxCell id="HOcWKpLbceG71wfPBprw-167" value="&lt;font color=&quot;#000000&quot; style=&quot;font-size: 15px;&quot;&gt;&lt;span style=&quot;font-size: 15px;&quot;&gt;SOP&lt;/span&gt;&lt;/font&gt;" style="shape=partialRectangle;html=1;whiteSpace=wrap;connectable=0;fillColor=none;top=0;left=0;bottom=0;right=0;overflow=hidden;rounded=0;labelBackgroundColor=none;fontSize=15;fontColor=#FFFFFF;" parent="HOcWKpLbceG71wfPBprw-165" vertex="1">
          <mxGeometry x="73" width="80" height="42" as="geometry">
            <mxRectangle width="80" height="42" as="alternateBounds" />
          </mxGeometry>
        </mxCell>
        <mxCell id="HOcWKpLbceG71wfPBprw-169" value="&lt;font color=&quot;#000000&quot; style=&quot;font-size: 15px;&quot;&gt;&lt;span style=&quot;font-size: 15px;&quot;&gt;Description&lt;/span&gt;&lt;/font&gt;" style="shape=partialRectangle;html=1;whiteSpace=wrap;connectable=0;fillColor=none;top=0;left=0;bottom=0;right=0;overflow=hidden;rounded=0;labelBackgroundColor=none;fontSize=15;fontColor=#FFFFFF;" parent="HOcWKpLbceG71wfPBprw-165" vertex="1">
          <mxGeometry x="153" width="170" height="42" as="geometry">
            <mxRectangle width="170" height="42" as="alternateBounds" />
          </mxGeometry>
        </mxCell>
        <mxCell id="HOcWKpLbceG71wfPBprw-170" value="" style="shape=tableRow;horizontal=0;startSize=0;swimlaneHead=0;swimlaneBody=0;top=0;left=0;bottom=0;right=0;collapsible=0;dropTarget=0;fillColor=none;points=[[0,0.5],[1,0.5]];portConstraint=eastwest;rounded=0;labelBackgroundColor=none;fontSize=15;fontColor=#FFFFFF;" parent="HOcWKpLbceG71wfPBprw-164" vertex="1">
          <mxGeometry y="42" width="323" height="29" as="geometry" />
        </mxCell>
        <mxCell id="HOcWKpLbceG71wfPBprw-171" value="" style="shape=partialRectangle;html=1;whiteSpace=wrap;connectable=0;fillColor=none;top=0;left=0;bottom=0;right=0;overflow=hidden;rounded=0;labelBackgroundColor=none;fontSize=15;fontColor=#FFFFFF;" parent="HOcWKpLbceG71wfPBprw-170" vertex="1">
          <mxGeometry width="73" height="29" as="geometry">
            <mxRectangle width="73" height="29" as="alternateBounds" />
          </mxGeometry>
        </mxCell>
        <mxCell id="HOcWKpLbceG71wfPBprw-172" value="" style="shape=partialRectangle;html=1;whiteSpace=wrap;connectable=0;fillColor=none;top=0;left=0;bottom=0;right=0;overflow=hidden;rounded=0;labelBackgroundColor=none;fontSize=15;fontColor=#FFFFFF;" parent="HOcWKpLbceG71wfPBprw-170" vertex="1">
          <mxGeometry x="73" width="80" height="29" as="geometry">
            <mxRectangle width="80" height="29" as="alternateBounds" />
          </mxGeometry>
        </mxCell>
        <mxCell id="HOcWKpLbceG71wfPBprw-174" style="shape=partialRectangle;html=1;whiteSpace=wrap;connectable=0;fillColor=none;top=0;left=0;bottom=0;right=0;overflow=hidden;rounded=0;labelBackgroundColor=none;fontSize=15;fontColor=#FFFFFF;" parent="HOcWKpLbceG71wfPBprw-170" vertex="1">
          <mxGeometry x="153" width="170" height="29" as="geometry">
            <mxRectangle width="170" height="29" as="alternateBounds" />
          </mxGeometry>
        </mxCell>
        <mxCell id="HOcWKpLbceG71wfPBprw-175" value="" style="shape=tableRow;horizontal=0;startSize=0;swimlaneHead=0;swimlaneBody=0;top=0;left=0;bottom=0;right=0;collapsible=0;dropTarget=0;fillColor=none;points=[[0,0.5],[1,0.5]];portConstraint=eastwest;rounded=0;labelBackgroundColor=none;fontSize=15;fontColor=#FFFFFF;" parent="HOcWKpLbceG71wfPBprw-164" vertex="1">
          <mxGeometry y="71" width="323" height="30" as="geometry" />
        </mxCell>
        <mxCell id="HOcWKpLbceG71wfPBprw-176" value="" style="shape=partialRectangle;html=1;whiteSpace=wrap;connectable=0;fillColor=none;top=0;left=0;bottom=0;right=0;overflow=hidden;rounded=0;labelBackgroundColor=none;fontSize=15;fontColor=#FFFFFF;" parent="HOcWKpLbceG71wfPBprw-175" vertex="1">
          <mxGeometry width="73" height="30" as="geometry">
            <mxRectangle width="73" height="30" as="alternateBounds" />
          </mxGeometry>
        </mxCell>
        <mxCell id="HOcWKpLbceG71wfPBprw-177" value="" style="shape=partialRectangle;html=1;whiteSpace=wrap;connectable=0;fillColor=none;top=0;left=0;bottom=0;right=0;overflow=hidden;rounded=0;labelBackgroundColor=none;fontSize=15;fontColor=#FFFFFF;" parent="HOcWKpLbceG71wfPBprw-175" vertex="1">
          <mxGeometry x="73" width="80" height="30" as="geometry">
            <mxRectangle width="80" height="30" as="alternateBounds" />
          </mxGeometry>
        </mxCell>
        <mxCell id="HOcWKpLbceG71wfPBprw-179" style="shape=partialRectangle;html=1;whiteSpace=wrap;connectable=0;fillColor=none;top=0;left=0;bottom=0;right=0;overflow=hidden;rounded=0;labelBackgroundColor=none;fontSize=15;fontColor=#FFFFFF;" parent="HOcWKpLbceG71wfPBprw-175" vertex="1">
          <mxGeometry x="153" width="170" height="30" as="geometry">
            <mxRectangle width="170" height="30" as="alternateBounds" />
          </mxGeometry>
        </mxCell>
        <mxCell id="HOcWKpLbceG71wfPBprw-180" value="" style="shape=tableRow;horizontal=0;startSize=0;swimlaneHead=0;swimlaneBody=0;top=0;left=0;bottom=0;right=0;collapsible=0;dropTarget=0;fillColor=none;points=[[0,0.5],[1,0.5]];portConstraint=eastwest;rounded=0;labelBackgroundColor=none;fontSize=15;fontColor=#FFFFFF;" parent="HOcWKpLbceG71wfPBprw-164" vertex="1">
          <mxGeometry y="101" width="323" height="30" as="geometry" />
        </mxCell>
        <mxCell id="HOcWKpLbceG71wfPBprw-181" value="" style="shape=partialRectangle;html=1;whiteSpace=wrap;connectable=0;fillColor=none;top=0;left=0;bottom=0;right=0;overflow=hidden;rounded=0;labelBackgroundColor=none;fontSize=15;fontColor=#FFFFFF;" parent="HOcWKpLbceG71wfPBprw-180" vertex="1">
          <mxGeometry width="73" height="30" as="geometry">
            <mxRectangle width="73" height="30" as="alternateBounds" />
          </mxGeometry>
        </mxCell>
        <mxCell id="HOcWKpLbceG71wfPBprw-182" value="" style="shape=partialRectangle;html=1;whiteSpace=wrap;connectable=0;fillColor=none;top=0;left=0;bottom=0;right=0;overflow=hidden;rounded=0;labelBackgroundColor=none;fontSize=15;fontColor=#FFFFFF;" parent="HOcWKpLbceG71wfPBprw-180" vertex="1">
          <mxGeometry x="73" width="80" height="30" as="geometry">
            <mxRectangle width="80" height="30" as="alternateBounds" />
          </mxGeometry>
        </mxCell>
        <mxCell id="HOcWKpLbceG71wfPBprw-184" style="shape=partialRectangle;html=1;whiteSpace=wrap;connectable=0;fillColor=none;top=0;left=0;bottom=0;right=0;overflow=hidden;pointerEvents=1;rounded=0;labelBackgroundColor=none;fontSize=15;fontColor=#FFFFFF;" parent="HOcWKpLbceG71wfPBprw-180" vertex="1">
          <mxGeometry x="153" width="170" height="30" as="geometry">
            <mxRectangle width="170" height="30" as="alternateBounds" />
          </mxGeometry>
        </mxCell>
        <mxCell id="HOcWKpLbceG71wfPBprw-185" value="" style="shape=tableRow;horizontal=0;startSize=0;swimlaneHead=0;swimlaneBody=0;top=0;left=0;bottom=0;right=0;collapsible=0;dropTarget=0;fillColor=none;points=[[0,0.5],[1,0.5]];portConstraint=eastwest;rounded=0;labelBackgroundColor=none;fontSize=15;fontColor=#FFFFFF;" parent="HOcWKpLbceG71wfPBprw-164" vertex="1">
          <mxGeometry y="131" width="323" height="33" as="geometry" />
        </mxCell>
        <mxCell id="HOcWKpLbceG71wfPBprw-186" value="" style="shape=partialRectangle;html=1;whiteSpace=wrap;connectable=0;fillColor=none;top=0;left=0;bottom=0;right=0;overflow=hidden;rounded=0;labelBackgroundColor=none;fontSize=15;fontColor=#FFFFFF;" parent="HOcWKpLbceG71wfPBprw-185" vertex="1">
          <mxGeometry width="73" height="33" as="geometry">
            <mxRectangle width="73" height="33" as="alternateBounds" />
          </mxGeometry>
        </mxCell>
        <mxCell id="HOcWKpLbceG71wfPBprw-187" value="" style="shape=partialRectangle;html=1;whiteSpace=wrap;connectable=0;fillColor=none;top=0;left=0;bottom=0;right=0;overflow=hidden;rounded=0;labelBackgroundColor=none;fontSize=15;fontColor=#FFFFFF;" parent="HOcWKpLbceG71wfPBprw-185" vertex="1">
          <mxGeometry x="73" width="80" height="33" as="geometry">
            <mxRectangle width="80" height="33" as="alternateBounds" />
          </mxGeometry>
        </mxCell>
        <mxCell id="HOcWKpLbceG71wfPBprw-189" style="shape=partialRectangle;html=1;whiteSpace=wrap;connectable=0;fillColor=none;top=0;left=0;bottom=0;right=0;overflow=hidden;pointerEvents=1;rounded=0;labelBackgroundColor=none;fontSize=15;fontColor=#FFFFFF;" parent="HOcWKpLbceG71wfPBprw-185" vertex="1">
          <mxGeometry x="153" width="170" height="33" as="geometry">
            <mxRectangle width="170" height="33" as="alternateBounds" />
          </mxGeometry>
        </mxCell>
        <mxCell id="4w_kfiBpFiU5m1Fu5KsI-48" style="shape=tableRow;horizontal=0;startSize=0;swimlaneHead=0;swimlaneBody=0;top=0;left=0;bottom=0;right=0;collapsible=0;dropTarget=0;fillColor=none;points=[[0,0.5],[1,0.5]];portConstraint=eastwest;rounded=0;labelBackgroundColor=none;fontSize=15;fontColor=#FFFFFF;" vertex="1" parent="HOcWKpLbceG71wfPBprw-164">
          <mxGeometry y="164" width="323" height="33" as="geometry" />
        </mxCell>
        <mxCell id="4w_kfiBpFiU5m1Fu5KsI-49" style="shape=partialRectangle;html=1;whiteSpace=wrap;connectable=0;fillColor=none;top=0;left=0;bottom=0;right=0;overflow=hidden;rounded=0;labelBackgroundColor=none;fontSize=15;fontColor=#FFFFFF;" vertex="1" parent="4w_kfiBpFiU5m1Fu5KsI-48">
          <mxGeometry width="73" height="33" as="geometry">
            <mxRectangle width="73" height="33" as="alternateBounds" />
          </mxGeometry>
        </mxCell>
        <mxCell id="4w_kfiBpFiU5m1Fu5KsI-50" style="shape=partialRectangle;html=1;whiteSpace=wrap;connectable=0;fillColor=none;top=0;left=0;bottom=0;right=0;overflow=hidden;rounded=0;labelBackgroundColor=none;fontSize=15;fontColor=#FFFFFF;" vertex="1" parent="4w_kfiBpFiU5m1Fu5KsI-48">
          <mxGeometry x="73" width="80" height="33" as="geometry">
            <mxRectangle width="80" height="33" as="alternateBounds" />
          </mxGeometry>
        </mxCell>
        <mxCell id="4w_kfiBpFiU5m1Fu5KsI-51" style="shape=partialRectangle;html=1;whiteSpace=wrap;connectable=0;fillColor=none;top=0;left=0;bottom=0;right=0;overflow=hidden;pointerEvents=1;rounded=0;labelBackgroundColor=none;fontSize=15;fontColor=#FFFFFF;" vertex="1" parent="4w_kfiBpFiU5m1Fu5KsI-48">
          <mxGeometry x="153" width="170" height="33" as="geometry">
            <mxRectangle width="170" height="33" as="alternateBounds" />
          </mxGeometry>
        </mxCell>
        <mxCell id="HOcWKpLbceG71wfPBprw-197" value="Upcoming compound inwards" style="rounded=0;whiteSpace=wrap;html=1;labelBackgroundColor=none;fontSize=15;verticalAlign=top;fontStyle=1" parent="1" vertex="1">
          <mxGeometry x="1030" y="170" width="370" height="520" as="geometry" />
        </mxCell>
        <mxCell id="HOcWKpLbceG71wfPBprw-199" value="" style="shape=table;html=1;whiteSpace=wrap;startSize=0;container=1;collapsible=0;childLayout=tableLayout;rounded=0;labelBackgroundColor=none;fontSize=12;labelBorderColor=none;shadow=0;swimlaneLine=0;sketch=0;fillColor=#f5f5f5;fontColor=#333333;strokeColor=#666666;" parent="1" vertex="1">
          <mxGeometry x="1047" y="214.99545454545455" width="336" height="465.3954545454545" as="geometry" />
        </mxCell>
        <mxCell id="HOcWKpLbceG71wfPBprw-200" value="" style="shape=tableRow;horizontal=0;startSize=0;swimlaneHead=0;swimlaneBody=0;top=0;left=0;bottom=0;right=0;collapsible=0;dropTarget=0;fillColor=none;points=[[0,0.5],[1,0.5]];portConstraint=eastwest;rounded=0;labelBackgroundColor=none;fontSize=15;fontColor=#FFFFFF;" parent="HOcWKpLbceG71wfPBprw-199" vertex="1">
          <mxGeometry width="336" height="42" as="geometry" />
        </mxCell>
        <mxCell id="HOcWKpLbceG71wfPBprw-201" value="&lt;font color=&quot;#000000&quot; style=&quot;font-size: 16px;&quot;&gt;Study ID&lt;/font&gt;" style="shape=partialRectangle;html=1;whiteSpace=wrap;connectable=0;fillColor=none;top=0;left=0;bottom=0;right=0;overflow=hidden;rounded=0;labelBackgroundColor=none;fontSize=16;fontColor=#FFFFFF;" parent="HOcWKpLbceG71wfPBprw-200" vertex="1">
          <mxGeometry width="72" height="42" as="geometry">
            <mxRectangle width="72" height="42" as="alternateBounds" />
          </mxGeometry>
        </mxCell>
        <mxCell id="HOcWKpLbceG71wfPBprw-202" value="&lt;font color=&quot;#000000&quot; style=&quot;font-size: 16px;&quot;&gt;&lt;span style=&quot;font-size: 16px;&quot;&gt;Round&lt;/span&gt;&lt;/font&gt;" style="shape=partialRectangle;html=1;whiteSpace=wrap;connectable=0;fillColor=none;top=0;left=0;bottom=0;right=0;overflow=hidden;rounded=0;labelBackgroundColor=none;fontSize=16;fontColor=#FFFFFF;" parent="HOcWKpLbceG71wfPBprw-200" vertex="1">
          <mxGeometry x="72" width="72" height="42" as="geometry">
            <mxRectangle width="72" height="42" as="alternateBounds" />
          </mxGeometry>
        </mxCell>
        <mxCell id="HOcWKpLbceG71wfPBprw-203" value="&lt;font color=&quot;#000000&quot; style=&quot;font-size: 16px;&quot;&gt;&lt;span style=&quot;font-size: 16px;&quot;&gt;Expected&lt;/span&gt;&lt;/font&gt;" style="shape=partialRectangle;html=1;whiteSpace=wrap;connectable=0;fillColor=none;top=0;left=0;bottom=0;right=0;overflow=hidden;rounded=0;labelBackgroundColor=none;fontSize=16;fontColor=#FFFFFF;" parent="HOcWKpLbceG71wfPBprw-200" vertex="1">
          <mxGeometry x="144" width="83" height="42" as="geometry">
            <mxRectangle width="83" height="42" as="alternateBounds" />
          </mxGeometry>
        </mxCell>
        <mxCell id="HOcWKpLbceG71wfPBprw-204" value="&lt;font color=&quot;#000000&quot; style=&quot;font-size: 16px;&quot;&gt;&lt;span style=&quot;font-size: 16px;&quot;&gt;Actions&lt;/span&gt;&lt;/font&gt;" style="shape=partialRectangle;html=1;whiteSpace=wrap;connectable=0;fillColor=none;top=0;left=0;bottom=0;right=0;overflow=hidden;rounded=0;labelBackgroundColor=none;fontSize=16;fontColor=#FFFFFF;" parent="HOcWKpLbceG71wfPBprw-200" vertex="1">
          <mxGeometry x="227" width="109" height="42" as="geometry">
            <mxRectangle width="109" height="42" as="alternateBounds" />
          </mxGeometry>
        </mxCell>
        <mxCell id="HOcWKpLbceG71wfPBprw-205" value="" style="shape=tableRow;horizontal=0;startSize=0;swimlaneHead=0;swimlaneBody=0;top=0;left=0;bottom=0;right=0;collapsible=0;dropTarget=0;fillColor=none;points=[[0,0.5],[1,0.5]];portConstraint=eastwest;rounded=0;labelBackgroundColor=none;fontSize=15;fontColor=#FFFFFF;" parent="HOcWKpLbceG71wfPBprw-199" vertex="1">
          <mxGeometry y="42" width="336" height="33" as="geometry" />
        </mxCell>
        <mxCell id="HOcWKpLbceG71wfPBprw-206" value="" style="shape=partialRectangle;html=1;whiteSpace=wrap;connectable=0;fillColor=none;top=0;left=0;bottom=0;right=0;overflow=hidden;rounded=0;labelBackgroundColor=none;fontSize=15;fontColor=#FFFFFF;" parent="HOcWKpLbceG71wfPBprw-205" vertex="1">
          <mxGeometry width="72" height="33" as="geometry">
            <mxRectangle width="72" height="33" as="alternateBounds" />
          </mxGeometry>
        </mxCell>
        <mxCell id="HOcWKpLbceG71wfPBprw-207" value="" style="shape=partialRectangle;html=1;whiteSpace=wrap;connectable=0;fillColor=none;top=0;left=0;bottom=0;right=0;overflow=hidden;rounded=0;labelBackgroundColor=none;fontSize=15;fontColor=#FFFFFF;" parent="HOcWKpLbceG71wfPBprw-205" vertex="1">
          <mxGeometry x="72" width="72" height="33" as="geometry">
            <mxRectangle width="72" height="33" as="alternateBounds" />
          </mxGeometry>
        </mxCell>
        <mxCell id="HOcWKpLbceG71wfPBprw-208" value="" style="shape=partialRectangle;html=1;whiteSpace=wrap;connectable=0;fillColor=none;top=0;left=0;bottom=0;right=0;overflow=hidden;rounded=0;labelBackgroundColor=none;fontSize=15;fontColor=#FFFFFF;" parent="HOcWKpLbceG71wfPBprw-205" vertex="1">
          <mxGeometry x="144" width="83" height="33" as="geometry">
            <mxRectangle width="83" height="33" as="alternateBounds" />
          </mxGeometry>
        </mxCell>
        <mxCell id="HOcWKpLbceG71wfPBprw-209" value="&lt;font color=&quot;#000000&quot;&gt;&lt;span style=&quot;font-size: 10px;&quot;&gt;Receipt compounds&lt;/span&gt;&lt;/font&gt;" style="shape=partialRectangle;html=1;whiteSpace=wrap;connectable=0;fillColor=none;top=0;left=0;bottom=0;right=0;overflow=hidden;rounded=0;labelBackgroundColor=none;fontSize=15;fontColor=#FFFFFF;" parent="HOcWKpLbceG71wfPBprw-205" vertex="1">
          <mxGeometry x="227" width="109" height="33" as="geometry">
            <mxRectangle width="109" height="33" as="alternateBounds" />
          </mxGeometry>
        </mxCell>
        <mxCell id="HOcWKpLbceG71wfPBprw-210" value="" style="shape=tableRow;horizontal=0;startSize=0;swimlaneHead=0;swimlaneBody=0;top=0;left=0;bottom=0;right=0;collapsible=0;dropTarget=0;fillColor=none;points=[[0,0.5],[1,0.5]];portConstraint=eastwest;rounded=0;labelBackgroundColor=none;fontSize=15;fontColor=#FFFFFF;" parent="HOcWKpLbceG71wfPBprw-199" vertex="1">
          <mxGeometry y="75" width="336" height="30" as="geometry" />
        </mxCell>
        <mxCell id="HOcWKpLbceG71wfPBprw-211" value="" style="shape=partialRectangle;html=1;whiteSpace=wrap;connectable=0;fillColor=none;top=0;left=0;bottom=0;right=0;overflow=hidden;rounded=0;labelBackgroundColor=none;fontSize=15;fontColor=#FFFFFF;" parent="HOcWKpLbceG71wfPBprw-210" vertex="1">
          <mxGeometry width="72" height="30" as="geometry">
            <mxRectangle width="72" height="30" as="alternateBounds" />
          </mxGeometry>
        </mxCell>
        <mxCell id="HOcWKpLbceG71wfPBprw-212" value="" style="shape=partialRectangle;html=1;whiteSpace=wrap;connectable=0;fillColor=none;top=0;left=0;bottom=0;right=0;overflow=hidden;rounded=0;labelBackgroundColor=none;fontSize=15;fontColor=#FFFFFF;" parent="HOcWKpLbceG71wfPBprw-210" vertex="1">
          <mxGeometry x="72" width="72" height="30" as="geometry">
            <mxRectangle width="72" height="30" as="alternateBounds" />
          </mxGeometry>
        </mxCell>
        <mxCell id="HOcWKpLbceG71wfPBprw-213" value="" style="shape=partialRectangle;html=1;whiteSpace=wrap;connectable=0;fillColor=none;top=0;left=0;bottom=0;right=0;overflow=hidden;rounded=0;labelBackgroundColor=none;fontSize=15;fontColor=#FFFFFF;" parent="HOcWKpLbceG71wfPBprw-210" vertex="1">
          <mxGeometry x="144" width="83" height="30" as="geometry">
            <mxRectangle width="83" height="30" as="alternateBounds" />
          </mxGeometry>
        </mxCell>
        <mxCell id="HOcWKpLbceG71wfPBprw-214" style="shape=partialRectangle;html=1;whiteSpace=wrap;connectable=0;fillColor=none;top=0;left=0;bottom=0;right=0;overflow=hidden;rounded=0;labelBackgroundColor=none;fontSize=15;fontColor=#FFFFFF;" parent="HOcWKpLbceG71wfPBprw-210" vertex="1">
          <mxGeometry x="227" width="109" height="30" as="geometry">
            <mxRectangle width="109" height="30" as="alternateBounds" />
          </mxGeometry>
        </mxCell>
        <mxCell id="HOcWKpLbceG71wfPBprw-215" value="" style="shape=tableRow;horizontal=0;startSize=0;swimlaneHead=0;swimlaneBody=0;top=0;left=0;bottom=0;right=0;collapsible=0;dropTarget=0;fillColor=none;points=[[0,0.5],[1,0.5]];portConstraint=eastwest;rounded=0;labelBackgroundColor=none;fontSize=15;fontColor=#FFFFFF;" parent="HOcWKpLbceG71wfPBprw-199" vertex="1">
          <mxGeometry y="105" width="336" height="30" as="geometry" />
        </mxCell>
        <mxCell id="HOcWKpLbceG71wfPBprw-216" value="" style="shape=partialRectangle;html=1;whiteSpace=wrap;connectable=0;fillColor=none;top=0;left=0;bottom=0;right=0;overflow=hidden;rounded=0;labelBackgroundColor=none;fontSize=15;fontColor=#FFFFFF;" parent="HOcWKpLbceG71wfPBprw-215" vertex="1">
          <mxGeometry width="72" height="30" as="geometry">
            <mxRectangle width="72" height="30" as="alternateBounds" />
          </mxGeometry>
        </mxCell>
        <mxCell id="HOcWKpLbceG71wfPBprw-217" value="" style="shape=partialRectangle;html=1;whiteSpace=wrap;connectable=0;fillColor=none;top=0;left=0;bottom=0;right=0;overflow=hidden;rounded=0;labelBackgroundColor=none;fontSize=15;fontColor=#FFFFFF;" parent="HOcWKpLbceG71wfPBprw-215" vertex="1">
          <mxGeometry x="72" width="72" height="30" as="geometry">
            <mxRectangle width="72" height="30" as="alternateBounds" />
          </mxGeometry>
        </mxCell>
        <mxCell id="HOcWKpLbceG71wfPBprw-218" value="" style="shape=partialRectangle;html=1;whiteSpace=wrap;connectable=0;fillColor=none;top=0;left=0;bottom=0;right=0;overflow=hidden;pointerEvents=1;rounded=0;labelBackgroundColor=none;fontSize=15;fontColor=#FFFFFF;" parent="HOcWKpLbceG71wfPBprw-215" vertex="1">
          <mxGeometry x="144" width="83" height="30" as="geometry">
            <mxRectangle width="83" height="30" as="alternateBounds" />
          </mxGeometry>
        </mxCell>
        <mxCell id="HOcWKpLbceG71wfPBprw-219" style="shape=partialRectangle;html=1;whiteSpace=wrap;connectable=0;fillColor=none;top=0;left=0;bottom=0;right=0;overflow=hidden;pointerEvents=1;rounded=0;labelBackgroundColor=none;fontSize=15;fontColor=#FFFFFF;" parent="HOcWKpLbceG71wfPBprw-215" vertex="1">
          <mxGeometry x="227" width="109" height="30" as="geometry">
            <mxRectangle width="109" height="30" as="alternateBounds" />
          </mxGeometry>
        </mxCell>
        <mxCell id="HOcWKpLbceG71wfPBprw-220" value="" style="shape=tableRow;horizontal=0;startSize=0;swimlaneHead=0;swimlaneBody=0;top=0;left=0;bottom=0;right=0;collapsible=0;dropTarget=0;fillColor=none;points=[[0,0.5],[1,0.5]];portConstraint=eastwest;rounded=0;labelBackgroundColor=none;fontSize=15;fontColor=#FFFFFF;" parent="HOcWKpLbceG71wfPBprw-199" vertex="1">
          <mxGeometry y="135" width="336" height="30" as="geometry" />
        </mxCell>
        <mxCell id="HOcWKpLbceG71wfPBprw-221" value="" style="shape=partialRectangle;html=1;whiteSpace=wrap;connectable=0;fillColor=none;top=0;left=0;bottom=0;right=0;overflow=hidden;rounded=0;labelBackgroundColor=none;fontSize=15;fontColor=#FFFFFF;" parent="HOcWKpLbceG71wfPBprw-220" vertex="1">
          <mxGeometry width="72" height="30" as="geometry">
            <mxRectangle width="72" height="30" as="alternateBounds" />
          </mxGeometry>
        </mxCell>
        <mxCell id="HOcWKpLbceG71wfPBprw-222" value="" style="shape=partialRectangle;html=1;whiteSpace=wrap;connectable=0;fillColor=none;top=0;left=0;bottom=0;right=0;overflow=hidden;rounded=0;labelBackgroundColor=none;fontSize=15;fontColor=#FFFFFF;" parent="HOcWKpLbceG71wfPBprw-220" vertex="1">
          <mxGeometry x="72" width="72" height="30" as="geometry">
            <mxRectangle width="72" height="30" as="alternateBounds" />
          </mxGeometry>
        </mxCell>
        <mxCell id="HOcWKpLbceG71wfPBprw-223" value="" style="shape=partialRectangle;html=1;whiteSpace=wrap;connectable=0;fillColor=none;top=0;left=0;bottom=0;right=0;overflow=hidden;pointerEvents=1;rounded=0;labelBackgroundColor=none;fontSize=15;fontColor=#FFFFFF;" parent="HOcWKpLbceG71wfPBprw-220" vertex="1">
          <mxGeometry x="144" width="83" height="30" as="geometry">
            <mxRectangle width="83" height="30" as="alternateBounds" />
          </mxGeometry>
        </mxCell>
        <mxCell id="HOcWKpLbceG71wfPBprw-224" style="shape=partialRectangle;html=1;whiteSpace=wrap;connectable=0;fillColor=none;top=0;left=0;bottom=0;right=0;overflow=hidden;pointerEvents=1;rounded=0;labelBackgroundColor=none;fontSize=15;fontColor=#FFFFFF;" parent="HOcWKpLbceG71wfPBprw-220" vertex="1">
          <mxGeometry x="227" width="109" height="30" as="geometry">
            <mxRectangle width="109" height="30" as="alternateBounds" />
          </mxGeometry>
        </mxCell>
        <mxCell id="4w_kfiBpFiU5m1Fu5KsI-52" style="shape=tableRow;horizontal=0;startSize=0;swimlaneHead=0;swimlaneBody=0;top=0;left=0;bottom=0;right=0;collapsible=0;dropTarget=0;fillColor=none;points=[[0,0.5],[1,0.5]];portConstraint=eastwest;rounded=0;labelBackgroundColor=none;fontSize=15;fontColor=#FFFFFF;" vertex="1" parent="HOcWKpLbceG71wfPBprw-199">
          <mxGeometry y="165" width="336" height="30" as="geometry" />
        </mxCell>
        <mxCell id="4w_kfiBpFiU5m1Fu5KsI-53" style="shape=partialRectangle;html=1;whiteSpace=wrap;connectable=0;fillColor=none;top=0;left=0;bottom=0;right=0;overflow=hidden;rounded=0;labelBackgroundColor=none;fontSize=15;fontColor=#FFFFFF;" vertex="1" parent="4w_kfiBpFiU5m1Fu5KsI-52">
          <mxGeometry width="72" height="30" as="geometry">
            <mxRectangle width="72" height="30" as="alternateBounds" />
          </mxGeometry>
        </mxCell>
        <mxCell id="4w_kfiBpFiU5m1Fu5KsI-54" style="shape=partialRectangle;html=1;whiteSpace=wrap;connectable=0;fillColor=none;top=0;left=0;bottom=0;right=0;overflow=hidden;rounded=0;labelBackgroundColor=none;fontSize=15;fontColor=#FFFFFF;" vertex="1" parent="4w_kfiBpFiU5m1Fu5KsI-52">
          <mxGeometry x="72" width="72" height="30" as="geometry">
            <mxRectangle width="72" height="30" as="alternateBounds" />
          </mxGeometry>
        </mxCell>
        <mxCell id="4w_kfiBpFiU5m1Fu5KsI-55" style="shape=partialRectangle;html=1;whiteSpace=wrap;connectable=0;fillColor=none;top=0;left=0;bottom=0;right=0;overflow=hidden;pointerEvents=1;rounded=0;labelBackgroundColor=none;fontSize=15;fontColor=#FFFFFF;" vertex="1" parent="4w_kfiBpFiU5m1Fu5KsI-52">
          <mxGeometry x="144" width="83" height="30" as="geometry">
            <mxRectangle width="83" height="30" as="alternateBounds" />
          </mxGeometry>
        </mxCell>
        <mxCell id="4w_kfiBpFiU5m1Fu5KsI-56" style="shape=partialRectangle;html=1;whiteSpace=wrap;connectable=0;fillColor=none;top=0;left=0;bottom=0;right=0;overflow=hidden;pointerEvents=1;rounded=0;labelBackgroundColor=none;fontSize=15;fontColor=#FFFFFF;" vertex="1" parent="4w_kfiBpFiU5m1Fu5KsI-52">
          <mxGeometry x="227" width="109" height="30" as="geometry">
            <mxRectangle width="109" height="30" as="alternateBounds" />
          </mxGeometry>
        </mxCell>
        <mxCell id="4w_kfiBpFiU5m1Fu5KsI-57" style="shape=tableRow;horizontal=0;startSize=0;swimlaneHead=0;swimlaneBody=0;top=0;left=0;bottom=0;right=0;collapsible=0;dropTarget=0;fillColor=none;points=[[0,0.5],[1,0.5]];portConstraint=eastwest;rounded=0;labelBackgroundColor=none;fontSize=15;fontColor=#FFFFFF;" vertex="1" parent="HOcWKpLbceG71wfPBprw-199">
          <mxGeometry y="195" width="336" height="30" as="geometry" />
        </mxCell>
        <mxCell id="4w_kfiBpFiU5m1Fu5KsI-58" style="shape=partialRectangle;html=1;whiteSpace=wrap;connectable=0;fillColor=none;top=0;left=0;bottom=0;right=0;overflow=hidden;rounded=0;labelBackgroundColor=none;fontSize=15;fontColor=#FFFFFF;" vertex="1" parent="4w_kfiBpFiU5m1Fu5KsI-57">
          <mxGeometry width="72" height="30" as="geometry">
            <mxRectangle width="72" height="30" as="alternateBounds" />
          </mxGeometry>
        </mxCell>
        <mxCell id="4w_kfiBpFiU5m1Fu5KsI-59" style="shape=partialRectangle;html=1;whiteSpace=wrap;connectable=0;fillColor=none;top=0;left=0;bottom=0;right=0;overflow=hidden;rounded=0;labelBackgroundColor=none;fontSize=15;fontColor=#FFFFFF;" vertex="1" parent="4w_kfiBpFiU5m1Fu5KsI-57">
          <mxGeometry x="72" width="72" height="30" as="geometry">
            <mxRectangle width="72" height="30" as="alternateBounds" />
          </mxGeometry>
        </mxCell>
        <mxCell id="4w_kfiBpFiU5m1Fu5KsI-60" style="shape=partialRectangle;html=1;whiteSpace=wrap;connectable=0;fillColor=none;top=0;left=0;bottom=0;right=0;overflow=hidden;pointerEvents=1;rounded=0;labelBackgroundColor=none;fontSize=15;fontColor=#FFFFFF;" vertex="1" parent="4w_kfiBpFiU5m1Fu5KsI-57">
          <mxGeometry x="144" width="83" height="30" as="geometry">
            <mxRectangle width="83" height="30" as="alternateBounds" />
          </mxGeometry>
        </mxCell>
        <mxCell id="4w_kfiBpFiU5m1Fu5KsI-61" style="shape=partialRectangle;html=1;whiteSpace=wrap;connectable=0;fillColor=none;top=0;left=0;bottom=0;right=0;overflow=hidden;pointerEvents=1;rounded=0;labelBackgroundColor=none;fontSize=15;fontColor=#FFFFFF;" vertex="1" parent="4w_kfiBpFiU5m1Fu5KsI-57">
          <mxGeometry x="227" width="109" height="30" as="geometry">
            <mxRectangle width="109" height="30" as="alternateBounds" />
          </mxGeometry>
        </mxCell>
        <mxCell id="4w_kfiBpFiU5m1Fu5KsI-62" style="shape=tableRow;horizontal=0;startSize=0;swimlaneHead=0;swimlaneBody=0;top=0;left=0;bottom=0;right=0;collapsible=0;dropTarget=0;fillColor=none;points=[[0,0.5],[1,0.5]];portConstraint=eastwest;rounded=0;labelBackgroundColor=none;fontSize=15;fontColor=#FFFFFF;" vertex="1" parent="HOcWKpLbceG71wfPBprw-199">
          <mxGeometry y="225" width="336" height="30" as="geometry" />
        </mxCell>
        <mxCell id="4w_kfiBpFiU5m1Fu5KsI-63" style="shape=partialRectangle;html=1;whiteSpace=wrap;connectable=0;fillColor=none;top=0;left=0;bottom=0;right=0;overflow=hidden;rounded=0;labelBackgroundColor=none;fontSize=15;fontColor=#FFFFFF;" vertex="1" parent="4w_kfiBpFiU5m1Fu5KsI-62">
          <mxGeometry width="72" height="30" as="geometry">
            <mxRectangle width="72" height="30" as="alternateBounds" />
          </mxGeometry>
        </mxCell>
        <mxCell id="4w_kfiBpFiU5m1Fu5KsI-64" style="shape=partialRectangle;html=1;whiteSpace=wrap;connectable=0;fillColor=none;top=0;left=0;bottom=0;right=0;overflow=hidden;rounded=0;labelBackgroundColor=none;fontSize=15;fontColor=#FFFFFF;" vertex="1" parent="4w_kfiBpFiU5m1Fu5KsI-62">
          <mxGeometry x="72" width="72" height="30" as="geometry">
            <mxRectangle width="72" height="30" as="alternateBounds" />
          </mxGeometry>
        </mxCell>
        <mxCell id="4w_kfiBpFiU5m1Fu5KsI-65" style="shape=partialRectangle;html=1;whiteSpace=wrap;connectable=0;fillColor=none;top=0;left=0;bottom=0;right=0;overflow=hidden;pointerEvents=1;rounded=0;labelBackgroundColor=none;fontSize=15;fontColor=#FFFFFF;" vertex="1" parent="4w_kfiBpFiU5m1Fu5KsI-62">
          <mxGeometry x="144" width="83" height="30" as="geometry">
            <mxRectangle width="83" height="30" as="alternateBounds" />
          </mxGeometry>
        </mxCell>
        <mxCell id="4w_kfiBpFiU5m1Fu5KsI-66" style="shape=partialRectangle;html=1;whiteSpace=wrap;connectable=0;fillColor=none;top=0;left=0;bottom=0;right=0;overflow=hidden;pointerEvents=1;rounded=0;labelBackgroundColor=none;fontSize=15;fontColor=#FFFFFF;" vertex="1" parent="4w_kfiBpFiU5m1Fu5KsI-62">
          <mxGeometry x="227" width="109" height="30" as="geometry">
            <mxRectangle width="109" height="30" as="alternateBounds" />
          </mxGeometry>
        </mxCell>
        <mxCell id="4w_kfiBpFiU5m1Fu5KsI-67" style="shape=tableRow;horizontal=0;startSize=0;swimlaneHead=0;swimlaneBody=0;top=0;left=0;bottom=0;right=0;collapsible=0;dropTarget=0;fillColor=none;points=[[0,0.5],[1,0.5]];portConstraint=eastwest;rounded=0;labelBackgroundColor=none;fontSize=15;fontColor=#FFFFFF;" vertex="1" parent="HOcWKpLbceG71wfPBprw-199">
          <mxGeometry y="255" width="336" height="30" as="geometry" />
        </mxCell>
        <mxCell id="4w_kfiBpFiU5m1Fu5KsI-68" style="shape=partialRectangle;html=1;whiteSpace=wrap;connectable=0;fillColor=none;top=0;left=0;bottom=0;right=0;overflow=hidden;rounded=0;labelBackgroundColor=none;fontSize=15;fontColor=#FFFFFF;" vertex="1" parent="4w_kfiBpFiU5m1Fu5KsI-67">
          <mxGeometry width="72" height="30" as="geometry">
            <mxRectangle width="72" height="30" as="alternateBounds" />
          </mxGeometry>
        </mxCell>
        <mxCell id="4w_kfiBpFiU5m1Fu5KsI-69" style="shape=partialRectangle;html=1;whiteSpace=wrap;connectable=0;fillColor=none;top=0;left=0;bottom=0;right=0;overflow=hidden;rounded=0;labelBackgroundColor=none;fontSize=15;fontColor=#FFFFFF;" vertex="1" parent="4w_kfiBpFiU5m1Fu5KsI-67">
          <mxGeometry x="72" width="72" height="30" as="geometry">
            <mxRectangle width="72" height="30" as="alternateBounds" />
          </mxGeometry>
        </mxCell>
        <mxCell id="4w_kfiBpFiU5m1Fu5KsI-70" style="shape=partialRectangle;html=1;whiteSpace=wrap;connectable=0;fillColor=none;top=0;left=0;bottom=0;right=0;overflow=hidden;pointerEvents=1;rounded=0;labelBackgroundColor=none;fontSize=15;fontColor=#FFFFFF;" vertex="1" parent="4w_kfiBpFiU5m1Fu5KsI-67">
          <mxGeometry x="144" width="83" height="30" as="geometry">
            <mxRectangle width="83" height="30" as="alternateBounds" />
          </mxGeometry>
        </mxCell>
        <mxCell id="4w_kfiBpFiU5m1Fu5KsI-71" style="shape=partialRectangle;html=1;whiteSpace=wrap;connectable=0;fillColor=none;top=0;left=0;bottom=0;right=0;overflow=hidden;pointerEvents=1;rounded=0;labelBackgroundColor=none;fontSize=15;fontColor=#FFFFFF;" vertex="1" parent="4w_kfiBpFiU5m1Fu5KsI-67">
          <mxGeometry x="227" width="109" height="30" as="geometry">
            <mxRectangle width="109" height="30" as="alternateBounds" />
          </mxGeometry>
        </mxCell>
        <mxCell id="4w_kfiBpFiU5m1Fu5KsI-72" style="shape=tableRow;horizontal=0;startSize=0;swimlaneHead=0;swimlaneBody=0;top=0;left=0;bottom=0;right=0;collapsible=0;dropTarget=0;fillColor=none;points=[[0,0.5],[1,0.5]];portConstraint=eastwest;rounded=0;labelBackgroundColor=none;fontSize=15;fontColor=#FFFFFF;" vertex="1" parent="HOcWKpLbceG71wfPBprw-199">
          <mxGeometry y="285" width="336" height="30" as="geometry" />
        </mxCell>
        <mxCell id="4w_kfiBpFiU5m1Fu5KsI-73" style="shape=partialRectangle;html=1;whiteSpace=wrap;connectable=0;fillColor=none;top=0;left=0;bottom=0;right=0;overflow=hidden;rounded=0;labelBackgroundColor=none;fontSize=15;fontColor=#FFFFFF;" vertex="1" parent="4w_kfiBpFiU5m1Fu5KsI-72">
          <mxGeometry width="72" height="30" as="geometry">
            <mxRectangle width="72" height="30" as="alternateBounds" />
          </mxGeometry>
        </mxCell>
        <mxCell id="4w_kfiBpFiU5m1Fu5KsI-74" style="shape=partialRectangle;html=1;whiteSpace=wrap;connectable=0;fillColor=none;top=0;left=0;bottom=0;right=0;overflow=hidden;rounded=0;labelBackgroundColor=none;fontSize=15;fontColor=#FFFFFF;" vertex="1" parent="4w_kfiBpFiU5m1Fu5KsI-72">
          <mxGeometry x="72" width="72" height="30" as="geometry">
            <mxRectangle width="72" height="30" as="alternateBounds" />
          </mxGeometry>
        </mxCell>
        <mxCell id="4w_kfiBpFiU5m1Fu5KsI-75" style="shape=partialRectangle;html=1;whiteSpace=wrap;connectable=0;fillColor=none;top=0;left=0;bottom=0;right=0;overflow=hidden;pointerEvents=1;rounded=0;labelBackgroundColor=none;fontSize=15;fontColor=#FFFFFF;" vertex="1" parent="4w_kfiBpFiU5m1Fu5KsI-72">
          <mxGeometry x="144" width="83" height="30" as="geometry">
            <mxRectangle width="83" height="30" as="alternateBounds" />
          </mxGeometry>
        </mxCell>
        <mxCell id="4w_kfiBpFiU5m1Fu5KsI-76" style="shape=partialRectangle;html=1;whiteSpace=wrap;connectable=0;fillColor=none;top=0;left=0;bottom=0;right=0;overflow=hidden;pointerEvents=1;rounded=0;labelBackgroundColor=none;fontSize=15;fontColor=#FFFFFF;" vertex="1" parent="4w_kfiBpFiU5m1Fu5KsI-72">
          <mxGeometry x="227" width="109" height="30" as="geometry">
            <mxRectangle width="109" height="30" as="alternateBounds" />
          </mxGeometry>
        </mxCell>
        <mxCell id="4w_kfiBpFiU5m1Fu5KsI-77" style="shape=tableRow;horizontal=0;startSize=0;swimlaneHead=0;swimlaneBody=0;top=0;left=0;bottom=0;right=0;collapsible=0;dropTarget=0;fillColor=none;points=[[0,0.5],[1,0.5]];portConstraint=eastwest;rounded=0;labelBackgroundColor=none;fontSize=15;fontColor=#FFFFFF;" vertex="1" parent="HOcWKpLbceG71wfPBprw-199">
          <mxGeometry y="315" width="336" height="30" as="geometry" />
        </mxCell>
        <mxCell id="4w_kfiBpFiU5m1Fu5KsI-78" style="shape=partialRectangle;html=1;whiteSpace=wrap;connectable=0;fillColor=none;top=0;left=0;bottom=0;right=0;overflow=hidden;rounded=0;labelBackgroundColor=none;fontSize=15;fontColor=#FFFFFF;" vertex="1" parent="4w_kfiBpFiU5m1Fu5KsI-77">
          <mxGeometry width="72" height="30" as="geometry">
            <mxRectangle width="72" height="30" as="alternateBounds" />
          </mxGeometry>
        </mxCell>
        <mxCell id="4w_kfiBpFiU5m1Fu5KsI-79" style="shape=partialRectangle;html=1;whiteSpace=wrap;connectable=0;fillColor=none;top=0;left=0;bottom=0;right=0;overflow=hidden;rounded=0;labelBackgroundColor=none;fontSize=15;fontColor=#FFFFFF;" vertex="1" parent="4w_kfiBpFiU5m1Fu5KsI-77">
          <mxGeometry x="72" width="72" height="30" as="geometry">
            <mxRectangle width="72" height="30" as="alternateBounds" />
          </mxGeometry>
        </mxCell>
        <mxCell id="4w_kfiBpFiU5m1Fu5KsI-80" style="shape=partialRectangle;html=1;whiteSpace=wrap;connectable=0;fillColor=none;top=0;left=0;bottom=0;right=0;overflow=hidden;pointerEvents=1;rounded=0;labelBackgroundColor=none;fontSize=15;fontColor=#FFFFFF;" vertex="1" parent="4w_kfiBpFiU5m1Fu5KsI-77">
          <mxGeometry x="144" width="83" height="30" as="geometry">
            <mxRectangle width="83" height="30" as="alternateBounds" />
          </mxGeometry>
        </mxCell>
        <mxCell id="4w_kfiBpFiU5m1Fu5KsI-81" style="shape=partialRectangle;html=1;whiteSpace=wrap;connectable=0;fillColor=none;top=0;left=0;bottom=0;right=0;overflow=hidden;pointerEvents=1;rounded=0;labelBackgroundColor=none;fontSize=15;fontColor=#FFFFFF;" vertex="1" parent="4w_kfiBpFiU5m1Fu5KsI-77">
          <mxGeometry x="227" width="109" height="30" as="geometry">
            <mxRectangle width="109" height="30" as="alternateBounds" />
          </mxGeometry>
        </mxCell>
        <mxCell id="4w_kfiBpFiU5m1Fu5KsI-82" style="shape=tableRow;horizontal=0;startSize=0;swimlaneHead=0;swimlaneBody=0;top=0;left=0;bottom=0;right=0;collapsible=0;dropTarget=0;fillColor=none;points=[[0,0.5],[1,0.5]];portConstraint=eastwest;rounded=0;labelBackgroundColor=none;fontSize=15;fontColor=#FFFFFF;movable=0;resizable=0;rotatable=0;deletable=0;editable=0;connectable=0;" vertex="1" parent="HOcWKpLbceG71wfPBprw-199">
          <mxGeometry y="345" width="336" height="30" as="geometry" />
        </mxCell>
        <mxCell id="4w_kfiBpFiU5m1Fu5KsI-83" style="shape=partialRectangle;html=1;whiteSpace=wrap;connectable=0;fillColor=none;top=0;left=0;bottom=0;right=0;overflow=hidden;rounded=0;labelBackgroundColor=none;fontSize=15;fontColor=#FFFFFF;movable=0;resizable=0;rotatable=0;deletable=0;editable=0;" vertex="1" parent="4w_kfiBpFiU5m1Fu5KsI-82">
          <mxGeometry width="72" height="30" as="geometry">
            <mxRectangle width="72" height="30" as="alternateBounds" />
          </mxGeometry>
        </mxCell>
        <mxCell id="4w_kfiBpFiU5m1Fu5KsI-84" style="shape=partialRectangle;html=1;whiteSpace=wrap;connectable=0;fillColor=none;top=0;left=0;bottom=0;right=0;overflow=hidden;rounded=0;labelBackgroundColor=none;fontSize=15;fontColor=#FFFFFF;movable=0;resizable=0;rotatable=0;deletable=0;editable=0;" vertex="1" parent="4w_kfiBpFiU5m1Fu5KsI-82">
          <mxGeometry x="72" width="72" height="30" as="geometry">
            <mxRectangle width="72" height="30" as="alternateBounds" />
          </mxGeometry>
        </mxCell>
        <mxCell id="4w_kfiBpFiU5m1Fu5KsI-85" style="shape=partialRectangle;html=1;whiteSpace=wrap;connectable=0;fillColor=none;top=0;left=0;bottom=0;right=0;overflow=hidden;pointerEvents=1;rounded=0;labelBackgroundColor=none;fontSize=15;fontColor=#FFFFFF;movable=0;resizable=0;rotatable=0;deletable=0;editable=0;" vertex="1" parent="4w_kfiBpFiU5m1Fu5KsI-82">
          <mxGeometry x="144" width="83" height="30" as="geometry">
            <mxRectangle width="83" height="30" as="alternateBounds" />
          </mxGeometry>
        </mxCell>
        <mxCell id="4w_kfiBpFiU5m1Fu5KsI-86" style="shape=partialRectangle;html=1;whiteSpace=wrap;connectable=0;fillColor=none;top=0;left=0;bottom=0;right=0;overflow=hidden;pointerEvents=1;rounded=0;labelBackgroundColor=none;fontSize=15;fontColor=#FFFFFF;movable=0;resizable=0;rotatable=0;deletable=0;editable=0;" vertex="1" parent="4w_kfiBpFiU5m1Fu5KsI-82">
          <mxGeometry x="227" width="109" height="30" as="geometry">
            <mxRectangle width="109" height="30" as="alternateBounds" />
          </mxGeometry>
        </mxCell>
        <mxCell id="4w_kfiBpFiU5m1Fu5KsI-87" style="shape=tableRow;horizontal=0;startSize=0;swimlaneHead=0;swimlaneBody=0;top=0;left=0;bottom=0;right=0;collapsible=0;dropTarget=0;fillColor=none;points=[[0,0.5],[1,0.5]];portConstraint=eastwest;rounded=0;labelBackgroundColor=none;fontSize=15;fontColor=#FFFFFF;movable=0;resizable=0;rotatable=0;deletable=0;editable=0;connectable=0;" vertex="1" parent="HOcWKpLbceG71wfPBprw-199">
          <mxGeometry y="375" width="336" height="30" as="geometry" />
        </mxCell>
        <mxCell id="4w_kfiBpFiU5m1Fu5KsI-88" style="shape=partialRectangle;html=1;whiteSpace=wrap;connectable=0;fillColor=none;top=0;left=0;bottom=0;right=0;overflow=hidden;rounded=0;labelBackgroundColor=none;fontSize=15;fontColor=#FFFFFF;movable=0;resizable=0;rotatable=0;deletable=0;editable=0;" vertex="1" parent="4w_kfiBpFiU5m1Fu5KsI-87">
          <mxGeometry width="72" height="30" as="geometry">
            <mxRectangle width="72" height="30" as="alternateBounds" />
          </mxGeometry>
        </mxCell>
        <mxCell id="4w_kfiBpFiU5m1Fu5KsI-89" style="shape=partialRectangle;html=1;whiteSpace=wrap;connectable=0;fillColor=none;top=0;left=0;bottom=0;right=0;overflow=hidden;rounded=0;labelBackgroundColor=none;fontSize=15;fontColor=#FFFFFF;movable=0;resizable=0;rotatable=0;deletable=0;editable=0;" vertex="1" parent="4w_kfiBpFiU5m1Fu5KsI-87">
          <mxGeometry x="72" width="72" height="30" as="geometry">
            <mxRectangle width="72" height="30" as="alternateBounds" />
          </mxGeometry>
        </mxCell>
        <mxCell id="4w_kfiBpFiU5m1Fu5KsI-90" style="shape=partialRectangle;html=1;whiteSpace=wrap;connectable=0;fillColor=none;top=0;left=0;bottom=0;right=0;overflow=hidden;pointerEvents=1;rounded=0;labelBackgroundColor=none;fontSize=15;fontColor=#FFFFFF;movable=0;resizable=0;rotatable=0;deletable=0;editable=0;" vertex="1" parent="4w_kfiBpFiU5m1Fu5KsI-87">
          <mxGeometry x="144" width="83" height="30" as="geometry">
            <mxRectangle width="83" height="30" as="alternateBounds" />
          </mxGeometry>
        </mxCell>
        <mxCell id="4w_kfiBpFiU5m1Fu5KsI-91" style="shape=partialRectangle;html=1;whiteSpace=wrap;connectable=0;fillColor=none;top=0;left=0;bottom=0;right=0;overflow=hidden;pointerEvents=1;rounded=0;labelBackgroundColor=none;fontSize=15;fontColor=#FFFFFF;movable=0;resizable=0;rotatable=0;deletable=0;editable=0;" vertex="1" parent="4w_kfiBpFiU5m1Fu5KsI-87">
          <mxGeometry x="227" width="109" height="30" as="geometry">
            <mxRectangle width="109" height="30" as="alternateBounds" />
          </mxGeometry>
        </mxCell>
        <mxCell id="4w_kfiBpFiU5m1Fu5KsI-92" style="shape=tableRow;horizontal=0;startSize=0;swimlaneHead=0;swimlaneBody=0;top=0;left=0;bottom=0;right=0;collapsible=0;dropTarget=0;fillColor=none;points=[[0,0.5],[1,0.5]];portConstraint=eastwest;rounded=0;labelBackgroundColor=none;fontSize=15;fontColor=#FFFFFF;movable=0;resizable=0;rotatable=0;deletable=0;editable=0;connectable=0;" vertex="1" parent="HOcWKpLbceG71wfPBprw-199">
          <mxGeometry y="405" width="336" height="30" as="geometry" />
        </mxCell>
        <mxCell id="4w_kfiBpFiU5m1Fu5KsI-93" style="shape=partialRectangle;html=1;whiteSpace=wrap;connectable=0;fillColor=none;top=0;left=0;bottom=0;right=0;overflow=hidden;rounded=0;labelBackgroundColor=none;fontSize=15;fontColor=#FFFFFF;movable=0;resizable=0;rotatable=0;deletable=0;editable=0;" vertex="1" parent="4w_kfiBpFiU5m1Fu5KsI-92">
          <mxGeometry width="72" height="30" as="geometry">
            <mxRectangle width="72" height="30" as="alternateBounds" />
          </mxGeometry>
        </mxCell>
        <mxCell id="4w_kfiBpFiU5m1Fu5KsI-94" style="shape=partialRectangle;html=1;whiteSpace=wrap;connectable=0;fillColor=none;top=0;left=0;bottom=0;right=0;overflow=hidden;rounded=0;labelBackgroundColor=none;fontSize=15;fontColor=#FFFFFF;movable=0;resizable=0;rotatable=0;deletable=0;editable=0;" vertex="1" parent="4w_kfiBpFiU5m1Fu5KsI-92">
          <mxGeometry x="72" width="72" height="30" as="geometry">
            <mxRectangle width="72" height="30" as="alternateBounds" />
          </mxGeometry>
        </mxCell>
        <mxCell id="4w_kfiBpFiU5m1Fu5KsI-95" style="shape=partialRectangle;html=1;whiteSpace=wrap;connectable=0;fillColor=none;top=0;left=0;bottom=0;right=0;overflow=hidden;pointerEvents=1;rounded=0;labelBackgroundColor=none;fontSize=15;fontColor=#FFFFFF;movable=0;resizable=0;rotatable=0;deletable=0;editable=0;" vertex="1" parent="4w_kfiBpFiU5m1Fu5KsI-92">
          <mxGeometry x="144" width="83" height="30" as="geometry">
            <mxRectangle width="83" height="30" as="alternateBounds" />
          </mxGeometry>
        </mxCell>
        <mxCell id="4w_kfiBpFiU5m1Fu5KsI-96" style="shape=partialRectangle;html=1;whiteSpace=wrap;connectable=0;fillColor=none;top=0;left=0;bottom=0;right=0;overflow=hidden;pointerEvents=1;rounded=0;labelBackgroundColor=none;fontSize=15;fontColor=#FFFFFF;movable=0;resizable=0;rotatable=0;deletable=0;editable=0;" vertex="1" parent="4w_kfiBpFiU5m1Fu5KsI-92">
          <mxGeometry x="227" width="109" height="30" as="geometry">
            <mxRectangle width="109" height="30" as="alternateBounds" />
          </mxGeometry>
        </mxCell>
        <mxCell id="4w_kfiBpFiU5m1Fu5KsI-97" style="shape=tableRow;horizontal=0;startSize=0;swimlaneHead=0;swimlaneBody=0;top=0;left=0;bottom=0;right=0;collapsible=0;dropTarget=0;fillColor=none;points=[[0,0.5],[1,0.5]];portConstraint=eastwest;rounded=0;labelBackgroundColor=none;fontSize=15;fontColor=#FFFFFF;movable=0;resizable=0;rotatable=0;deletable=0;editable=0;connectable=0;" vertex="1" parent="HOcWKpLbceG71wfPBprw-199">
          <mxGeometry y="435" width="336" height="30" as="geometry" />
        </mxCell>
        <mxCell id="4w_kfiBpFiU5m1Fu5KsI-98" style="shape=partialRectangle;html=1;whiteSpace=wrap;connectable=0;fillColor=none;top=0;left=0;bottom=0;right=0;overflow=hidden;rounded=0;labelBackgroundColor=none;fontSize=15;fontColor=#FFFFFF;movable=0;resizable=0;rotatable=0;deletable=0;editable=0;" vertex="1" parent="4w_kfiBpFiU5m1Fu5KsI-97">
          <mxGeometry width="72" height="30" as="geometry">
            <mxRectangle width="72" height="30" as="alternateBounds" />
          </mxGeometry>
        </mxCell>
        <mxCell id="4w_kfiBpFiU5m1Fu5KsI-99" style="shape=partialRectangle;html=1;whiteSpace=wrap;connectable=0;fillColor=none;top=0;left=0;bottom=0;right=0;overflow=hidden;rounded=0;labelBackgroundColor=none;fontSize=15;fontColor=#FFFFFF;movable=0;resizable=0;rotatable=0;deletable=0;editable=0;" vertex="1" parent="4w_kfiBpFiU5m1Fu5KsI-97">
          <mxGeometry x="72" width="72" height="30" as="geometry">
            <mxRectangle width="72" height="30" as="alternateBounds" />
          </mxGeometry>
        </mxCell>
        <mxCell id="4w_kfiBpFiU5m1Fu5KsI-100" style="shape=partialRectangle;html=1;whiteSpace=wrap;connectable=0;fillColor=none;top=0;left=0;bottom=0;right=0;overflow=hidden;pointerEvents=1;rounded=0;labelBackgroundColor=none;fontSize=15;fontColor=#FFFFFF;movable=0;resizable=0;rotatable=0;deletable=0;editable=0;" vertex="1" parent="4w_kfiBpFiU5m1Fu5KsI-97">
          <mxGeometry x="144" width="83" height="30" as="geometry">
            <mxRectangle width="83" height="30" as="alternateBounds" />
          </mxGeometry>
        </mxCell>
        <mxCell id="4w_kfiBpFiU5m1Fu5KsI-101" style="shape=partialRectangle;html=1;whiteSpace=wrap;connectable=0;fillColor=none;top=0;left=0;bottom=0;right=0;overflow=hidden;pointerEvents=1;rounded=0;labelBackgroundColor=none;fontSize=15;fontColor=#FFFFFF;movable=0;resizable=0;rotatable=0;deletable=0;editable=0;" vertex="1" parent="4w_kfiBpFiU5m1Fu5KsI-97">
          <mxGeometry x="227" width="109" height="30" as="geometry">
            <mxRectangle width="109" height="30" as="alternateBounds" />
          </mxGeometry>
        </mxCell>
        <mxCell id="odDNTdoTcmx5lw315tLp-1" value="" style="shape=table;html=1;whiteSpace=wrap;startSize=0;container=1;collapsible=0;childLayout=tableLayout;rounded=0;labelBackgroundColor=none;fontSize=12;labelBorderColor=none;shadow=0;swimlaneLine=0;sketch=0;fillColor=#f5f5f5;fontColor=#333333;strokeColor=#666666;" parent="1" vertex="1">
          <mxGeometry x="318" y="209.99545454545455" width="615" height="461.3636363636364" as="geometry" />
        </mxCell>
        <mxCell id="odDNTdoTcmx5lw315tLp-2" value="" style="shape=tableRow;horizontal=0;startSize=0;swimlaneHead=0;swimlaneBody=0;top=0;left=0;bottom=0;right=0;collapsible=0;dropTarget=0;fillColor=none;points=[[0,0.5],[1,0.5]];portConstraint=eastwest;rounded=0;labelBackgroundColor=none;fontSize=15;fontColor=#FFFFFF;" parent="odDNTdoTcmx5lw315tLp-1" vertex="1">
          <mxGeometry width="615" height="42" as="geometry" />
        </mxCell>
        <mxCell id="odDNTdoTcmx5lw315tLp-3" value="&lt;font color=&quot;#000000&quot; style=&quot;font-size: 14px;&quot;&gt;Study ID&lt;/font&gt;" style="shape=partialRectangle;html=1;whiteSpace=wrap;connectable=0;fillColor=none;top=0;left=0;bottom=0;right=0;overflow=hidden;rounded=0;labelBackgroundColor=none;fontSize=14;fontColor=#FFFFFF;" parent="odDNTdoTcmx5lw315tLp-2" vertex="1">
          <mxGeometry width="72" height="42" as="geometry">
            <mxRectangle width="72" height="42" as="alternateBounds" />
          </mxGeometry>
        </mxCell>
        <mxCell id="odDNTdoTcmx5lw315tLp-4" value="&lt;font color=&quot;#000000&quot; style=&quot;font-size: 14px;&quot;&gt;&lt;span style=&quot;font-size: 14px;&quot;&gt;Round&lt;/span&gt;&lt;/font&gt;" style="shape=partialRectangle;html=1;whiteSpace=wrap;connectable=0;fillColor=none;top=0;left=0;bottom=0;right=0;overflow=hidden;rounded=0;labelBackgroundColor=none;fontSize=14;fontColor=#FFFFFF;" parent="odDNTdoTcmx5lw315tLp-2" vertex="1">
          <mxGeometry x="72" width="72" height="42" as="geometry">
            <mxRectangle width="72" height="42" as="alternateBounds" />
          </mxGeometry>
        </mxCell>
        <mxCell id="odDNTdoTcmx5lw315tLp-5" value="&lt;font color=&quot;#000000&quot; style=&quot;font-size: 14px;&quot;&gt;&lt;span style=&quot;font-size: 14px;&quot;&gt;Deadline Date&lt;/span&gt;&lt;/font&gt;" style="shape=partialRectangle;html=1;whiteSpace=wrap;connectable=0;fillColor=none;top=0;left=0;bottom=0;right=0;overflow=hidden;rounded=0;labelBackgroundColor=none;fontSize=14;fontColor=#FFFFFF;" parent="odDNTdoTcmx5lw315tLp-2" vertex="1">
          <mxGeometry x="144" width="96" height="42" as="geometry">
            <mxRectangle width="96" height="42" as="alternateBounds" />
          </mxGeometry>
        </mxCell>
        <mxCell id="odDNTdoTcmx5lw315tLp-6" value="&lt;font color=&quot;#000000&quot; style=&quot;font-size: 14px;&quot;&gt;&lt;span style=&quot;font-size: 14px;&quot;&gt;Service&lt;/span&gt;&lt;/font&gt;" style="shape=partialRectangle;html=1;whiteSpace=wrap;connectable=0;fillColor=none;top=0;left=0;bottom=0;right=0;overflow=hidden;rounded=0;labelBackgroundColor=none;fontSize=14;fontColor=#FFFFFF;" parent="odDNTdoTcmx5lw315tLp-2" vertex="1">
          <mxGeometry x="240" width="132" height="42" as="geometry">
            <mxRectangle width="132" height="42" as="alternateBounds" />
          </mxGeometry>
        </mxCell>
        <mxCell id="odDNTdoTcmx5lw315tLp-27" value="&lt;font color=&quot;#000000&quot; style=&quot;font-size: 14px;&quot;&gt;&lt;span style=&quot;font-size: 14px;&quot;&gt;QC Locked?&lt;/span&gt;&lt;/font&gt;" style="shape=partialRectangle;html=1;whiteSpace=wrap;connectable=0;fillColor=none;top=0;left=0;bottom=0;right=0;overflow=hidden;rounded=0;labelBackgroundColor=none;fontSize=14;fontColor=#FFFFFF;" parent="odDNTdoTcmx5lw315tLp-2" vertex="1">
          <mxGeometry x="372" width="114" height="42" as="geometry">
            <mxRectangle width="114" height="42" as="alternateBounds" />
          </mxGeometry>
        </mxCell>
        <mxCell id="odDNTdoTcmx5lw315tLp-32" value="&lt;font color=&quot;#000000&quot; style=&quot;font-size: 14px;&quot;&gt;&lt;span style=&quot;font-size: 14px;&quot;&gt;Actions&lt;/span&gt;&lt;/font&gt;" style="shape=partialRectangle;html=1;whiteSpace=wrap;connectable=0;fillColor=none;top=0;left=0;bottom=0;right=0;overflow=hidden;rounded=0;labelBackgroundColor=none;fontSize=14;fontColor=#FFFFFF;" parent="odDNTdoTcmx5lw315tLp-2" vertex="1">
          <mxGeometry x="486" width="129" height="42" as="geometry">
            <mxRectangle width="129" height="42" as="alternateBounds" />
          </mxGeometry>
        </mxCell>
        <mxCell id="odDNTdoTcmx5lw315tLp-7" value="" style="shape=tableRow;horizontal=0;startSize=0;swimlaneHead=0;swimlaneBody=0;top=0;left=0;bottom=0;right=0;collapsible=0;dropTarget=0;fillColor=none;points=[[0,0.5],[1,0.5]];portConstraint=eastwest;rounded=0;labelBackgroundColor=none;fontSize=15;fontColor=#FFFFFF;" parent="odDNTdoTcmx5lw315tLp-1" vertex="1">
          <mxGeometry y="42" width="615" height="40" as="geometry" />
        </mxCell>
        <mxCell id="odDNTdoTcmx5lw315tLp-8" value="" style="shape=partialRectangle;html=1;whiteSpace=wrap;connectable=0;fillColor=none;top=0;left=0;bottom=0;right=0;overflow=hidden;rounded=0;labelBackgroundColor=none;fontSize=15;fontColor=#FFFFFF;" parent="odDNTdoTcmx5lw315tLp-7" vertex="1">
          <mxGeometry width="72" height="40" as="geometry">
            <mxRectangle width="72" height="40" as="alternateBounds" />
          </mxGeometry>
        </mxCell>
        <mxCell id="odDNTdoTcmx5lw315tLp-9" value="" style="shape=partialRectangle;html=1;whiteSpace=wrap;connectable=0;fillColor=none;top=0;left=0;bottom=0;right=0;overflow=hidden;rounded=0;labelBackgroundColor=none;fontSize=15;fontColor=#FFFFFF;" parent="odDNTdoTcmx5lw315tLp-7" vertex="1">
          <mxGeometry x="72" width="72" height="40" as="geometry">
            <mxRectangle width="72" height="40" as="alternateBounds" />
          </mxGeometry>
        </mxCell>
        <mxCell id="odDNTdoTcmx5lw315tLp-10" value="" style="shape=partialRectangle;html=1;whiteSpace=wrap;connectable=0;fillColor=none;top=0;left=0;bottom=0;right=0;overflow=hidden;rounded=0;labelBackgroundColor=none;fontSize=15;fontColor=#FFFFFF;" parent="odDNTdoTcmx5lw315tLp-7" vertex="1">
          <mxGeometry x="144" width="96" height="40" as="geometry">
            <mxRectangle width="96" height="40" as="alternateBounds" />
          </mxGeometry>
        </mxCell>
        <mxCell id="odDNTdoTcmx5lw315tLp-11" value="" style="shape=partialRectangle;html=1;whiteSpace=wrap;connectable=0;fillColor=none;top=0;left=0;bottom=0;right=0;overflow=hidden;rounded=0;labelBackgroundColor=none;fontSize=15;fontColor=#FFFFFF;" parent="odDNTdoTcmx5lw315tLp-7" vertex="1">
          <mxGeometry x="240" width="132" height="40" as="geometry">
            <mxRectangle width="132" height="40" as="alternateBounds" />
          </mxGeometry>
        </mxCell>
        <mxCell id="odDNTdoTcmx5lw315tLp-28" value="&lt;font color=&quot;#4d4d4d&quot; style=&quot;font-size: 13px;&quot;&gt;no/partial/fully&lt;/font&gt;" style="shape=partialRectangle;html=1;whiteSpace=wrap;connectable=0;fillColor=none;top=0;left=0;bottom=0;right=0;overflow=hidden;rounded=0;labelBackgroundColor=none;fontSize=13;fontColor=#FFFFFF;" parent="odDNTdoTcmx5lw315tLp-7" vertex="1">
          <mxGeometry x="372" width="114" height="40" as="geometry">
            <mxRectangle width="114" height="40" as="alternateBounds" />
          </mxGeometry>
        </mxCell>
        <mxCell id="odDNTdoTcmx5lw315tLp-33" value="&lt;font color=&quot;#4d4d4d&quot; style=&quot;font-size: 13px;&quot;&gt;extract results&lt;/font&gt;" style="shape=partialRectangle;html=1;whiteSpace=wrap;connectable=0;fillColor=none;top=0;left=0;bottom=0;right=0;overflow=hidden;rounded=0;labelBackgroundColor=none;fontSize=13;fontColor=#FFFFFF;" parent="odDNTdoTcmx5lw315tLp-7" vertex="1">
          <mxGeometry x="486" width="129" height="40" as="geometry">
            <mxRectangle width="129" height="40" as="alternateBounds" />
          </mxGeometry>
        </mxCell>
        <mxCell id="odDNTdoTcmx5lw315tLp-12" value="" style="shape=tableRow;horizontal=0;startSize=0;swimlaneHead=0;swimlaneBody=0;top=0;left=0;bottom=0;right=0;collapsible=0;dropTarget=0;fillColor=none;points=[[0,0.5],[1,0.5]];portConstraint=eastwest;rounded=0;labelBackgroundColor=none;fontSize=15;fontColor=#FFFFFF;" parent="odDNTdoTcmx5lw315tLp-1" vertex="1">
          <mxGeometry y="82" width="615" height="43" as="geometry" />
        </mxCell>
        <mxCell id="odDNTdoTcmx5lw315tLp-13" value="" style="shape=partialRectangle;html=1;whiteSpace=wrap;connectable=0;fillColor=none;top=0;left=0;bottom=0;right=0;overflow=hidden;rounded=0;labelBackgroundColor=none;fontSize=15;fontColor=#FFFFFF;" parent="odDNTdoTcmx5lw315tLp-12" vertex="1">
          <mxGeometry width="72" height="43" as="geometry">
            <mxRectangle width="72" height="43" as="alternateBounds" />
          </mxGeometry>
        </mxCell>
        <mxCell id="odDNTdoTcmx5lw315tLp-14" value="" style="shape=partialRectangle;html=1;whiteSpace=wrap;connectable=0;fillColor=none;top=0;left=0;bottom=0;right=0;overflow=hidden;rounded=0;labelBackgroundColor=none;fontSize=15;fontColor=#FFFFFF;" parent="odDNTdoTcmx5lw315tLp-12" vertex="1">
          <mxGeometry x="72" width="72" height="43" as="geometry">
            <mxRectangle width="72" height="43" as="alternateBounds" />
          </mxGeometry>
        </mxCell>
        <mxCell id="odDNTdoTcmx5lw315tLp-15" value="" style="shape=partialRectangle;html=1;whiteSpace=wrap;connectable=0;fillColor=none;top=0;left=0;bottom=0;right=0;overflow=hidden;rounded=0;labelBackgroundColor=none;fontSize=15;fontColor=#FFFFFF;" parent="odDNTdoTcmx5lw315tLp-12" vertex="1">
          <mxGeometry x="144" width="96" height="43" as="geometry">
            <mxRectangle width="96" height="43" as="alternateBounds" />
          </mxGeometry>
        </mxCell>
        <mxCell id="odDNTdoTcmx5lw315tLp-16" style="shape=partialRectangle;html=1;whiteSpace=wrap;connectable=0;fillColor=none;top=0;left=0;bottom=0;right=0;overflow=hidden;rounded=0;labelBackgroundColor=none;fontSize=15;fontColor=#FFFFFF;" parent="odDNTdoTcmx5lw315tLp-12" vertex="1">
          <mxGeometry x="240" width="132" height="43" as="geometry">
            <mxRectangle width="132" height="43" as="alternateBounds" />
          </mxGeometry>
        </mxCell>
        <mxCell id="odDNTdoTcmx5lw315tLp-29" style="shape=partialRectangle;html=1;whiteSpace=wrap;connectable=0;fillColor=none;top=0;left=0;bottom=0;right=0;overflow=hidden;rounded=0;labelBackgroundColor=none;fontSize=15;fontColor=#FFFFFF;" parent="odDNTdoTcmx5lw315tLp-12" vertex="1">
          <mxGeometry x="372" width="114" height="43" as="geometry">
            <mxRectangle width="114" height="43" as="alternateBounds" />
          </mxGeometry>
        </mxCell>
        <mxCell id="odDNTdoTcmx5lw315tLp-34" style="shape=partialRectangle;html=1;whiteSpace=wrap;connectable=0;fillColor=none;top=0;left=0;bottom=0;right=0;overflow=hidden;rounded=0;labelBackgroundColor=none;fontSize=15;fontColor=#FFFFFF;" parent="odDNTdoTcmx5lw315tLp-12" vertex="1">
          <mxGeometry x="486" width="129" height="43" as="geometry">
            <mxRectangle width="129" height="43" as="alternateBounds" />
          </mxGeometry>
        </mxCell>
        <mxCell id="odDNTdoTcmx5lw315tLp-17" value="" style="shape=tableRow;horizontal=0;startSize=0;swimlaneHead=0;swimlaneBody=0;top=0;left=0;bottom=0;right=0;collapsible=0;dropTarget=0;fillColor=none;points=[[0,0.5],[1,0.5]];portConstraint=eastwest;rounded=0;labelBackgroundColor=none;fontSize=15;fontColor=#FFFFFF;" parent="odDNTdoTcmx5lw315tLp-1" vertex="1">
          <mxGeometry y="125" width="615" height="42" as="geometry" />
        </mxCell>
        <mxCell id="odDNTdoTcmx5lw315tLp-18" value="" style="shape=partialRectangle;html=1;whiteSpace=wrap;connectable=0;fillColor=none;top=0;left=0;bottom=0;right=0;overflow=hidden;rounded=0;labelBackgroundColor=none;fontSize=15;fontColor=#FFFFFF;" parent="odDNTdoTcmx5lw315tLp-17" vertex="1">
          <mxGeometry width="72" height="42" as="geometry">
            <mxRectangle width="72" height="42" as="alternateBounds" />
          </mxGeometry>
        </mxCell>
        <mxCell id="odDNTdoTcmx5lw315tLp-19" value="" style="shape=partialRectangle;html=1;whiteSpace=wrap;connectable=0;fillColor=none;top=0;left=0;bottom=0;right=0;overflow=hidden;rounded=0;labelBackgroundColor=none;fontSize=15;fontColor=#FFFFFF;" parent="odDNTdoTcmx5lw315tLp-17" vertex="1">
          <mxGeometry x="72" width="72" height="42" as="geometry">
            <mxRectangle width="72" height="42" as="alternateBounds" />
          </mxGeometry>
        </mxCell>
        <mxCell id="odDNTdoTcmx5lw315tLp-20" value="" style="shape=partialRectangle;html=1;whiteSpace=wrap;connectable=0;fillColor=none;top=0;left=0;bottom=0;right=0;overflow=hidden;pointerEvents=1;rounded=0;labelBackgroundColor=none;fontSize=15;fontColor=#FFFFFF;" parent="odDNTdoTcmx5lw315tLp-17" vertex="1">
          <mxGeometry x="144" width="96" height="42" as="geometry">
            <mxRectangle width="96" height="42" as="alternateBounds" />
          </mxGeometry>
        </mxCell>
        <mxCell id="odDNTdoTcmx5lw315tLp-21" style="shape=partialRectangle;html=1;whiteSpace=wrap;connectable=0;fillColor=none;top=0;left=0;bottom=0;right=0;overflow=hidden;pointerEvents=1;rounded=0;labelBackgroundColor=none;fontSize=15;fontColor=#FFFFFF;" parent="odDNTdoTcmx5lw315tLp-17" vertex="1">
          <mxGeometry x="240" width="132" height="42" as="geometry">
            <mxRectangle width="132" height="42" as="alternateBounds" />
          </mxGeometry>
        </mxCell>
        <mxCell id="odDNTdoTcmx5lw315tLp-30" style="shape=partialRectangle;html=1;whiteSpace=wrap;connectable=0;fillColor=none;top=0;left=0;bottom=0;right=0;overflow=hidden;pointerEvents=1;rounded=0;labelBackgroundColor=none;fontSize=15;fontColor=#FFFFFF;" parent="odDNTdoTcmx5lw315tLp-17" vertex="1">
          <mxGeometry x="372" width="114" height="42" as="geometry">
            <mxRectangle width="114" height="42" as="alternateBounds" />
          </mxGeometry>
        </mxCell>
        <mxCell id="odDNTdoTcmx5lw315tLp-35" style="shape=partialRectangle;html=1;whiteSpace=wrap;connectable=0;fillColor=none;top=0;left=0;bottom=0;right=0;overflow=hidden;pointerEvents=1;rounded=0;labelBackgroundColor=none;fontSize=15;fontColor=#FFFFFF;" parent="odDNTdoTcmx5lw315tLp-17" vertex="1">
          <mxGeometry x="486" width="129" height="42" as="geometry">
            <mxRectangle width="129" height="42" as="alternateBounds" />
          </mxGeometry>
        </mxCell>
        <mxCell id="odDNTdoTcmx5lw315tLp-22" value="" style="shape=tableRow;horizontal=0;startSize=0;swimlaneHead=0;swimlaneBody=0;top=0;left=0;bottom=0;right=0;collapsible=0;dropTarget=0;fillColor=none;points=[[0,0.5],[1,0.5]];portConstraint=eastwest;rounded=0;labelBackgroundColor=none;fontSize=15;fontColor=#FFFFFF;" parent="odDNTdoTcmx5lw315tLp-1" vertex="1">
          <mxGeometry y="167" width="615" height="42" as="geometry" />
        </mxCell>
        <mxCell id="odDNTdoTcmx5lw315tLp-23" value="" style="shape=partialRectangle;html=1;whiteSpace=wrap;connectable=0;fillColor=none;top=0;left=0;bottom=0;right=0;overflow=hidden;rounded=0;labelBackgroundColor=none;fontSize=15;fontColor=#FFFFFF;" parent="odDNTdoTcmx5lw315tLp-22" vertex="1">
          <mxGeometry width="72" height="42" as="geometry">
            <mxRectangle width="72" height="42" as="alternateBounds" />
          </mxGeometry>
        </mxCell>
        <mxCell id="odDNTdoTcmx5lw315tLp-24" value="" style="shape=partialRectangle;html=1;whiteSpace=wrap;connectable=0;fillColor=none;top=0;left=0;bottom=0;right=0;overflow=hidden;rounded=0;labelBackgroundColor=none;fontSize=15;fontColor=#FFFFFF;" parent="odDNTdoTcmx5lw315tLp-22" vertex="1">
          <mxGeometry x="72" width="72" height="42" as="geometry">
            <mxRectangle width="72" height="42" as="alternateBounds" />
          </mxGeometry>
        </mxCell>
        <mxCell id="odDNTdoTcmx5lw315tLp-25" value="" style="shape=partialRectangle;html=1;whiteSpace=wrap;connectable=0;fillColor=none;top=0;left=0;bottom=0;right=0;overflow=hidden;pointerEvents=1;rounded=0;labelBackgroundColor=none;fontSize=15;fontColor=#FFFFFF;" parent="odDNTdoTcmx5lw315tLp-22" vertex="1">
          <mxGeometry x="144" width="96" height="42" as="geometry">
            <mxRectangle width="96" height="42" as="alternateBounds" />
          </mxGeometry>
        </mxCell>
        <mxCell id="odDNTdoTcmx5lw315tLp-26" style="shape=partialRectangle;html=1;whiteSpace=wrap;connectable=0;fillColor=none;top=0;left=0;bottom=0;right=0;overflow=hidden;pointerEvents=1;rounded=0;labelBackgroundColor=none;fontSize=15;fontColor=#FFFFFF;" parent="odDNTdoTcmx5lw315tLp-22" vertex="1">
          <mxGeometry x="240" width="132" height="42" as="geometry">
            <mxRectangle width="132" height="42" as="alternateBounds" />
          </mxGeometry>
        </mxCell>
        <mxCell id="odDNTdoTcmx5lw315tLp-31" style="shape=partialRectangle;html=1;whiteSpace=wrap;connectable=0;fillColor=none;top=0;left=0;bottom=0;right=0;overflow=hidden;pointerEvents=1;rounded=0;labelBackgroundColor=none;fontSize=15;fontColor=#FFFFFF;" parent="odDNTdoTcmx5lw315tLp-22" vertex="1">
          <mxGeometry x="372" width="114" height="42" as="geometry">
            <mxRectangle width="114" height="42" as="alternateBounds" />
          </mxGeometry>
        </mxCell>
        <mxCell id="odDNTdoTcmx5lw315tLp-36" style="shape=partialRectangle;html=1;whiteSpace=wrap;connectable=0;fillColor=none;top=0;left=0;bottom=0;right=0;overflow=hidden;pointerEvents=1;rounded=0;labelBackgroundColor=none;fontSize=15;fontColor=#FFFFFF;" parent="odDNTdoTcmx5lw315tLp-22" vertex="1">
          <mxGeometry x="486" width="129" height="42" as="geometry">
            <mxRectangle width="129" height="42" as="alternateBounds" />
          </mxGeometry>
        </mxCell>
        <mxCell id="4w_kfiBpFiU5m1Fu5KsI-6" style="shape=tableRow;horizontal=0;startSize=0;swimlaneHead=0;swimlaneBody=0;top=0;left=0;bottom=0;right=0;collapsible=0;dropTarget=0;fillColor=none;points=[[0,0.5],[1,0.5]];portConstraint=eastwest;rounded=0;labelBackgroundColor=none;fontSize=15;fontColor=#FFFFFF;" vertex="1" parent="odDNTdoTcmx5lw315tLp-1">
          <mxGeometry y="209" width="615" height="42" as="geometry" />
        </mxCell>
        <mxCell id="4w_kfiBpFiU5m1Fu5KsI-7" style="shape=partialRectangle;html=1;whiteSpace=wrap;connectable=0;fillColor=none;top=0;left=0;bottom=0;right=0;overflow=hidden;rounded=0;labelBackgroundColor=none;fontSize=15;fontColor=#FFFFFF;" vertex="1" parent="4w_kfiBpFiU5m1Fu5KsI-6">
          <mxGeometry width="72" height="42" as="geometry">
            <mxRectangle width="72" height="42" as="alternateBounds" />
          </mxGeometry>
        </mxCell>
        <mxCell id="4w_kfiBpFiU5m1Fu5KsI-8" style="shape=partialRectangle;html=1;whiteSpace=wrap;connectable=0;fillColor=none;top=0;left=0;bottom=0;right=0;overflow=hidden;rounded=0;labelBackgroundColor=none;fontSize=15;fontColor=#FFFFFF;" vertex="1" parent="4w_kfiBpFiU5m1Fu5KsI-6">
          <mxGeometry x="72" width="72" height="42" as="geometry">
            <mxRectangle width="72" height="42" as="alternateBounds" />
          </mxGeometry>
        </mxCell>
        <mxCell id="4w_kfiBpFiU5m1Fu5KsI-9" style="shape=partialRectangle;html=1;whiteSpace=wrap;connectable=0;fillColor=none;top=0;left=0;bottom=0;right=0;overflow=hidden;pointerEvents=1;rounded=0;labelBackgroundColor=none;fontSize=15;fontColor=#FFFFFF;" vertex="1" parent="4w_kfiBpFiU5m1Fu5KsI-6">
          <mxGeometry x="144" width="96" height="42" as="geometry">
            <mxRectangle width="96" height="42" as="alternateBounds" />
          </mxGeometry>
        </mxCell>
        <mxCell id="4w_kfiBpFiU5m1Fu5KsI-10" style="shape=partialRectangle;html=1;whiteSpace=wrap;connectable=0;fillColor=none;top=0;left=0;bottom=0;right=0;overflow=hidden;pointerEvents=1;rounded=0;labelBackgroundColor=none;fontSize=15;fontColor=#FFFFFF;" vertex="1" parent="4w_kfiBpFiU5m1Fu5KsI-6">
          <mxGeometry x="240" width="132" height="42" as="geometry">
            <mxRectangle width="132" height="42" as="alternateBounds" />
          </mxGeometry>
        </mxCell>
        <mxCell id="4w_kfiBpFiU5m1Fu5KsI-11" style="shape=partialRectangle;html=1;whiteSpace=wrap;connectable=0;fillColor=none;top=0;left=0;bottom=0;right=0;overflow=hidden;pointerEvents=1;rounded=0;labelBackgroundColor=none;fontSize=15;fontColor=#FFFFFF;" vertex="1" parent="4w_kfiBpFiU5m1Fu5KsI-6">
          <mxGeometry x="372" width="114" height="42" as="geometry">
            <mxRectangle width="114" height="42" as="alternateBounds" />
          </mxGeometry>
        </mxCell>
        <mxCell id="4w_kfiBpFiU5m1Fu5KsI-12" style="shape=partialRectangle;html=1;whiteSpace=wrap;connectable=0;fillColor=none;top=0;left=0;bottom=0;right=0;overflow=hidden;pointerEvents=1;rounded=0;labelBackgroundColor=none;fontSize=15;fontColor=#FFFFFF;" vertex="1" parent="4w_kfiBpFiU5m1Fu5KsI-6">
          <mxGeometry x="486" width="129" height="42" as="geometry">
            <mxRectangle width="129" height="42" as="alternateBounds" />
          </mxGeometry>
        </mxCell>
        <mxCell id="4w_kfiBpFiU5m1Fu5KsI-13" style="shape=tableRow;horizontal=0;startSize=0;swimlaneHead=0;swimlaneBody=0;top=0;left=0;bottom=0;right=0;collapsible=0;dropTarget=0;fillColor=none;points=[[0,0.5],[1,0.5]];portConstraint=eastwest;rounded=0;labelBackgroundColor=none;fontSize=15;fontColor=#FFFFFF;" vertex="1" parent="odDNTdoTcmx5lw315tLp-1">
          <mxGeometry y="251" width="615" height="42" as="geometry" />
        </mxCell>
        <mxCell id="4w_kfiBpFiU5m1Fu5KsI-14" style="shape=partialRectangle;html=1;whiteSpace=wrap;connectable=0;fillColor=none;top=0;left=0;bottom=0;right=0;overflow=hidden;rounded=0;labelBackgroundColor=none;fontSize=15;fontColor=#FFFFFF;" vertex="1" parent="4w_kfiBpFiU5m1Fu5KsI-13">
          <mxGeometry width="72" height="42" as="geometry">
            <mxRectangle width="72" height="42" as="alternateBounds" />
          </mxGeometry>
        </mxCell>
        <mxCell id="4w_kfiBpFiU5m1Fu5KsI-15" style="shape=partialRectangle;html=1;whiteSpace=wrap;connectable=0;fillColor=none;top=0;left=0;bottom=0;right=0;overflow=hidden;rounded=0;labelBackgroundColor=none;fontSize=15;fontColor=#FFFFFF;" vertex="1" parent="4w_kfiBpFiU5m1Fu5KsI-13">
          <mxGeometry x="72" width="72" height="42" as="geometry">
            <mxRectangle width="72" height="42" as="alternateBounds" />
          </mxGeometry>
        </mxCell>
        <mxCell id="4w_kfiBpFiU5m1Fu5KsI-16" style="shape=partialRectangle;html=1;whiteSpace=wrap;connectable=0;fillColor=none;top=0;left=0;bottom=0;right=0;overflow=hidden;pointerEvents=1;rounded=0;labelBackgroundColor=none;fontSize=15;fontColor=#FFFFFF;" vertex="1" parent="4w_kfiBpFiU5m1Fu5KsI-13">
          <mxGeometry x="144" width="96" height="42" as="geometry">
            <mxRectangle width="96" height="42" as="alternateBounds" />
          </mxGeometry>
        </mxCell>
        <mxCell id="4w_kfiBpFiU5m1Fu5KsI-17" style="shape=partialRectangle;html=1;whiteSpace=wrap;connectable=0;fillColor=none;top=0;left=0;bottom=0;right=0;overflow=hidden;pointerEvents=1;rounded=0;labelBackgroundColor=none;fontSize=15;fontColor=#FFFFFF;" vertex="1" parent="4w_kfiBpFiU5m1Fu5KsI-13">
          <mxGeometry x="240" width="132" height="42" as="geometry">
            <mxRectangle width="132" height="42" as="alternateBounds" />
          </mxGeometry>
        </mxCell>
        <mxCell id="4w_kfiBpFiU5m1Fu5KsI-18" style="shape=partialRectangle;html=1;whiteSpace=wrap;connectable=0;fillColor=none;top=0;left=0;bottom=0;right=0;overflow=hidden;pointerEvents=1;rounded=0;labelBackgroundColor=none;fontSize=15;fontColor=#FFFFFF;" vertex="1" parent="4w_kfiBpFiU5m1Fu5KsI-13">
          <mxGeometry x="372" width="114" height="42" as="geometry">
            <mxRectangle width="114" height="42" as="alternateBounds" />
          </mxGeometry>
        </mxCell>
        <mxCell id="4w_kfiBpFiU5m1Fu5KsI-19" style="shape=partialRectangle;html=1;whiteSpace=wrap;connectable=0;fillColor=none;top=0;left=0;bottom=0;right=0;overflow=hidden;pointerEvents=1;rounded=0;labelBackgroundColor=none;fontSize=15;fontColor=#FFFFFF;" vertex="1" parent="4w_kfiBpFiU5m1Fu5KsI-13">
          <mxGeometry x="486" width="129" height="42" as="geometry">
            <mxRectangle width="129" height="42" as="alternateBounds" />
          </mxGeometry>
        </mxCell>
        <mxCell id="4w_kfiBpFiU5m1Fu5KsI-20" style="shape=tableRow;horizontal=0;startSize=0;swimlaneHead=0;swimlaneBody=0;top=0;left=0;bottom=0;right=0;collapsible=0;dropTarget=0;fillColor=none;points=[[0,0.5],[1,0.5]];portConstraint=eastwest;rounded=0;labelBackgroundColor=none;fontSize=15;fontColor=#FFFFFF;" vertex="1" parent="odDNTdoTcmx5lw315tLp-1">
          <mxGeometry y="293" width="615" height="42" as="geometry" />
        </mxCell>
        <mxCell id="4w_kfiBpFiU5m1Fu5KsI-21" style="shape=partialRectangle;html=1;whiteSpace=wrap;connectable=0;fillColor=none;top=0;left=0;bottom=0;right=0;overflow=hidden;rounded=0;labelBackgroundColor=none;fontSize=15;fontColor=#FFFFFF;" vertex="1" parent="4w_kfiBpFiU5m1Fu5KsI-20">
          <mxGeometry width="72" height="42" as="geometry">
            <mxRectangle width="72" height="42" as="alternateBounds" />
          </mxGeometry>
        </mxCell>
        <mxCell id="4w_kfiBpFiU5m1Fu5KsI-22" style="shape=partialRectangle;html=1;whiteSpace=wrap;connectable=0;fillColor=none;top=0;left=0;bottom=0;right=0;overflow=hidden;rounded=0;labelBackgroundColor=none;fontSize=15;fontColor=#FFFFFF;" vertex="1" parent="4w_kfiBpFiU5m1Fu5KsI-20">
          <mxGeometry x="72" width="72" height="42" as="geometry">
            <mxRectangle width="72" height="42" as="alternateBounds" />
          </mxGeometry>
        </mxCell>
        <mxCell id="4w_kfiBpFiU5m1Fu5KsI-23" style="shape=partialRectangle;html=1;whiteSpace=wrap;connectable=0;fillColor=none;top=0;left=0;bottom=0;right=0;overflow=hidden;pointerEvents=1;rounded=0;labelBackgroundColor=none;fontSize=15;fontColor=#FFFFFF;" vertex="1" parent="4w_kfiBpFiU5m1Fu5KsI-20">
          <mxGeometry x="144" width="96" height="42" as="geometry">
            <mxRectangle width="96" height="42" as="alternateBounds" />
          </mxGeometry>
        </mxCell>
        <mxCell id="4w_kfiBpFiU5m1Fu5KsI-24" style="shape=partialRectangle;html=1;whiteSpace=wrap;connectable=0;fillColor=none;top=0;left=0;bottom=0;right=0;overflow=hidden;pointerEvents=1;rounded=0;labelBackgroundColor=none;fontSize=15;fontColor=#FFFFFF;" vertex="1" parent="4w_kfiBpFiU5m1Fu5KsI-20">
          <mxGeometry x="240" width="132" height="42" as="geometry">
            <mxRectangle width="132" height="42" as="alternateBounds" />
          </mxGeometry>
        </mxCell>
        <mxCell id="4w_kfiBpFiU5m1Fu5KsI-25" style="shape=partialRectangle;html=1;whiteSpace=wrap;connectable=0;fillColor=none;top=0;left=0;bottom=0;right=0;overflow=hidden;pointerEvents=1;rounded=0;labelBackgroundColor=none;fontSize=15;fontColor=#FFFFFF;" vertex="1" parent="4w_kfiBpFiU5m1Fu5KsI-20">
          <mxGeometry x="372" width="114" height="42" as="geometry">
            <mxRectangle width="114" height="42" as="alternateBounds" />
          </mxGeometry>
        </mxCell>
        <mxCell id="4w_kfiBpFiU5m1Fu5KsI-26" style="shape=partialRectangle;html=1;whiteSpace=wrap;connectable=0;fillColor=none;top=0;left=0;bottom=0;right=0;overflow=hidden;pointerEvents=1;rounded=0;labelBackgroundColor=none;fontSize=15;fontColor=#FFFFFF;" vertex="1" parent="4w_kfiBpFiU5m1Fu5KsI-20">
          <mxGeometry x="486" width="129" height="42" as="geometry">
            <mxRectangle width="129" height="42" as="alternateBounds" />
          </mxGeometry>
        </mxCell>
        <mxCell id="4w_kfiBpFiU5m1Fu5KsI-27" style="shape=tableRow;horizontal=0;startSize=0;swimlaneHead=0;swimlaneBody=0;top=0;left=0;bottom=0;right=0;collapsible=0;dropTarget=0;fillColor=none;points=[[0,0.5],[1,0.5]];portConstraint=eastwest;rounded=0;labelBackgroundColor=none;fontSize=15;fontColor=#FFFFFF;" vertex="1" parent="odDNTdoTcmx5lw315tLp-1">
          <mxGeometry y="335" width="615" height="42" as="geometry" />
        </mxCell>
        <mxCell id="4w_kfiBpFiU5m1Fu5KsI-28" style="shape=partialRectangle;html=1;whiteSpace=wrap;connectable=0;fillColor=none;top=0;left=0;bottom=0;right=0;overflow=hidden;rounded=0;labelBackgroundColor=none;fontSize=15;fontColor=#FFFFFF;" vertex="1" parent="4w_kfiBpFiU5m1Fu5KsI-27">
          <mxGeometry width="72" height="42" as="geometry">
            <mxRectangle width="72" height="42" as="alternateBounds" />
          </mxGeometry>
        </mxCell>
        <mxCell id="4w_kfiBpFiU5m1Fu5KsI-29" style="shape=partialRectangle;html=1;whiteSpace=wrap;connectable=0;fillColor=none;top=0;left=0;bottom=0;right=0;overflow=hidden;rounded=0;labelBackgroundColor=none;fontSize=15;fontColor=#FFFFFF;" vertex="1" parent="4w_kfiBpFiU5m1Fu5KsI-27">
          <mxGeometry x="72" width="72" height="42" as="geometry">
            <mxRectangle width="72" height="42" as="alternateBounds" />
          </mxGeometry>
        </mxCell>
        <mxCell id="4w_kfiBpFiU5m1Fu5KsI-30" style="shape=partialRectangle;html=1;whiteSpace=wrap;connectable=0;fillColor=none;top=0;left=0;bottom=0;right=0;overflow=hidden;pointerEvents=1;rounded=0;labelBackgroundColor=none;fontSize=15;fontColor=#FFFFFF;" vertex="1" parent="4w_kfiBpFiU5m1Fu5KsI-27">
          <mxGeometry x="144" width="96" height="42" as="geometry">
            <mxRectangle width="96" height="42" as="alternateBounds" />
          </mxGeometry>
        </mxCell>
        <mxCell id="4w_kfiBpFiU5m1Fu5KsI-31" style="shape=partialRectangle;html=1;whiteSpace=wrap;connectable=0;fillColor=none;top=0;left=0;bottom=0;right=0;overflow=hidden;pointerEvents=1;rounded=0;labelBackgroundColor=none;fontSize=15;fontColor=#FFFFFF;" vertex="1" parent="4w_kfiBpFiU5m1Fu5KsI-27">
          <mxGeometry x="240" width="132" height="42" as="geometry">
            <mxRectangle width="132" height="42" as="alternateBounds" />
          </mxGeometry>
        </mxCell>
        <mxCell id="4w_kfiBpFiU5m1Fu5KsI-32" style="shape=partialRectangle;html=1;whiteSpace=wrap;connectable=0;fillColor=none;top=0;left=0;bottom=0;right=0;overflow=hidden;pointerEvents=1;rounded=0;labelBackgroundColor=none;fontSize=15;fontColor=#FFFFFF;" vertex="1" parent="4w_kfiBpFiU5m1Fu5KsI-27">
          <mxGeometry x="372" width="114" height="42" as="geometry">
            <mxRectangle width="114" height="42" as="alternateBounds" />
          </mxGeometry>
        </mxCell>
        <mxCell id="4w_kfiBpFiU5m1Fu5KsI-33" style="shape=partialRectangle;html=1;whiteSpace=wrap;connectable=0;fillColor=none;top=0;left=0;bottom=0;right=0;overflow=hidden;pointerEvents=1;rounded=0;labelBackgroundColor=none;fontSize=15;fontColor=#FFFFFF;" vertex="1" parent="4w_kfiBpFiU5m1Fu5KsI-27">
          <mxGeometry x="486" width="129" height="42" as="geometry">
            <mxRectangle width="129" height="42" as="alternateBounds" />
          </mxGeometry>
        </mxCell>
        <mxCell id="4w_kfiBpFiU5m1Fu5KsI-34" style="shape=tableRow;horizontal=0;startSize=0;swimlaneHead=0;swimlaneBody=0;top=0;left=0;bottom=0;right=0;collapsible=0;dropTarget=0;fillColor=none;points=[[0,0.5],[1,0.5]];portConstraint=eastwest;rounded=0;labelBackgroundColor=none;fontSize=15;fontColor=#FFFFFF;movable=0;resizable=0;rotatable=0;deletable=0;editable=0;connectable=0;" vertex="1" parent="odDNTdoTcmx5lw315tLp-1">
          <mxGeometry y="377" width="615" height="42" as="geometry" />
        </mxCell>
        <mxCell id="4w_kfiBpFiU5m1Fu5KsI-35" style="shape=partialRectangle;html=1;whiteSpace=wrap;connectable=0;fillColor=none;top=0;left=0;bottom=0;right=0;overflow=hidden;rounded=0;labelBackgroundColor=none;fontSize=15;fontColor=#FFFFFF;movable=0;resizable=0;rotatable=0;deletable=0;editable=0;" vertex="1" parent="4w_kfiBpFiU5m1Fu5KsI-34">
          <mxGeometry width="72" height="42" as="geometry">
            <mxRectangle width="72" height="42" as="alternateBounds" />
          </mxGeometry>
        </mxCell>
        <mxCell id="4w_kfiBpFiU5m1Fu5KsI-36" style="shape=partialRectangle;html=1;whiteSpace=wrap;connectable=0;fillColor=none;top=0;left=0;bottom=0;right=0;overflow=hidden;rounded=0;labelBackgroundColor=none;fontSize=15;fontColor=#FFFFFF;movable=0;resizable=0;rotatable=0;deletable=0;editable=0;" vertex="1" parent="4w_kfiBpFiU5m1Fu5KsI-34">
          <mxGeometry x="72" width="72" height="42" as="geometry">
            <mxRectangle width="72" height="42" as="alternateBounds" />
          </mxGeometry>
        </mxCell>
        <mxCell id="4w_kfiBpFiU5m1Fu5KsI-37" style="shape=partialRectangle;html=1;whiteSpace=wrap;connectable=0;fillColor=none;top=0;left=0;bottom=0;right=0;overflow=hidden;pointerEvents=1;rounded=0;labelBackgroundColor=none;fontSize=15;fontColor=#FFFFFF;movable=0;resizable=0;rotatable=0;deletable=0;editable=0;" vertex="1" parent="4w_kfiBpFiU5m1Fu5KsI-34">
          <mxGeometry x="144" width="96" height="42" as="geometry">
            <mxRectangle width="96" height="42" as="alternateBounds" />
          </mxGeometry>
        </mxCell>
        <mxCell id="4w_kfiBpFiU5m1Fu5KsI-38" style="shape=partialRectangle;html=1;whiteSpace=wrap;connectable=0;fillColor=none;top=0;left=0;bottom=0;right=0;overflow=hidden;pointerEvents=1;rounded=0;labelBackgroundColor=none;fontSize=15;fontColor=#FFFFFF;movable=0;resizable=0;rotatable=0;deletable=0;editable=0;" vertex="1" parent="4w_kfiBpFiU5m1Fu5KsI-34">
          <mxGeometry x="240" width="132" height="42" as="geometry">
            <mxRectangle width="132" height="42" as="alternateBounds" />
          </mxGeometry>
        </mxCell>
        <mxCell id="4w_kfiBpFiU5m1Fu5KsI-39" style="shape=partialRectangle;html=1;whiteSpace=wrap;connectable=0;fillColor=none;top=0;left=0;bottom=0;right=0;overflow=hidden;pointerEvents=1;rounded=0;labelBackgroundColor=none;fontSize=15;fontColor=#FFFFFF;movable=0;resizable=0;rotatable=0;deletable=0;editable=0;" vertex="1" parent="4w_kfiBpFiU5m1Fu5KsI-34">
          <mxGeometry x="372" width="114" height="42" as="geometry">
            <mxRectangle width="114" height="42" as="alternateBounds" />
          </mxGeometry>
        </mxCell>
        <mxCell id="4w_kfiBpFiU5m1Fu5KsI-40" style="shape=partialRectangle;html=1;whiteSpace=wrap;connectable=0;fillColor=none;top=0;left=0;bottom=0;right=0;overflow=hidden;pointerEvents=1;rounded=0;labelBackgroundColor=none;fontSize=15;fontColor=#FFFFFF;movable=0;resizable=0;rotatable=0;deletable=0;editable=0;" vertex="1" parent="4w_kfiBpFiU5m1Fu5KsI-34">
          <mxGeometry x="486" width="129" height="42" as="geometry">
            <mxRectangle width="129" height="42" as="alternateBounds" />
          </mxGeometry>
        </mxCell>
        <mxCell id="4w_kfiBpFiU5m1Fu5KsI-41" style="shape=tableRow;horizontal=0;startSize=0;swimlaneHead=0;swimlaneBody=0;top=0;left=0;bottom=0;right=0;collapsible=0;dropTarget=0;fillColor=none;points=[[0,0.5],[1,0.5]];portConstraint=eastwest;rounded=0;labelBackgroundColor=none;fontSize=15;fontColor=#FFFFFF;movable=0;resizable=0;rotatable=0;deletable=0;editable=0;connectable=0;" vertex="1" parent="odDNTdoTcmx5lw315tLp-1">
          <mxGeometry y="419" width="615" height="42" as="geometry" />
        </mxCell>
        <mxCell id="4w_kfiBpFiU5m1Fu5KsI-42" style="shape=partialRectangle;html=1;whiteSpace=wrap;connectable=0;fillColor=none;top=0;left=0;bottom=0;right=0;overflow=hidden;rounded=0;labelBackgroundColor=none;fontSize=15;fontColor=#FFFFFF;movable=0;resizable=0;rotatable=0;deletable=0;editable=0;" vertex="1" parent="4w_kfiBpFiU5m1Fu5KsI-41">
          <mxGeometry width="72" height="42" as="geometry">
            <mxRectangle width="72" height="42" as="alternateBounds" />
          </mxGeometry>
        </mxCell>
        <mxCell id="4w_kfiBpFiU5m1Fu5KsI-43" style="shape=partialRectangle;html=1;whiteSpace=wrap;connectable=0;fillColor=none;top=0;left=0;bottom=0;right=0;overflow=hidden;rounded=0;labelBackgroundColor=none;fontSize=15;fontColor=#FFFFFF;movable=0;resizable=0;rotatable=0;deletable=0;editable=0;" vertex="1" parent="4w_kfiBpFiU5m1Fu5KsI-41">
          <mxGeometry x="72" width="72" height="42" as="geometry">
            <mxRectangle width="72" height="42" as="alternateBounds" />
          </mxGeometry>
        </mxCell>
        <mxCell id="4w_kfiBpFiU5m1Fu5KsI-44" style="shape=partialRectangle;html=1;whiteSpace=wrap;connectable=0;fillColor=none;top=0;left=0;bottom=0;right=0;overflow=hidden;pointerEvents=1;rounded=0;labelBackgroundColor=none;fontSize=15;fontColor=#FFFFFF;movable=0;resizable=0;rotatable=0;deletable=0;editable=0;" vertex="1" parent="4w_kfiBpFiU5m1Fu5KsI-41">
          <mxGeometry x="144" width="96" height="42" as="geometry">
            <mxRectangle width="96" height="42" as="alternateBounds" />
          </mxGeometry>
        </mxCell>
        <mxCell id="4w_kfiBpFiU5m1Fu5KsI-45" style="shape=partialRectangle;html=1;whiteSpace=wrap;connectable=0;fillColor=none;top=0;left=0;bottom=0;right=0;overflow=hidden;pointerEvents=1;rounded=0;labelBackgroundColor=none;fontSize=15;fontColor=#FFFFFF;movable=0;resizable=0;rotatable=0;deletable=0;editable=0;" vertex="1" parent="4w_kfiBpFiU5m1Fu5KsI-41">
          <mxGeometry x="240" width="132" height="42" as="geometry">
            <mxRectangle width="132" height="42" as="alternateBounds" />
          </mxGeometry>
        </mxCell>
        <mxCell id="4w_kfiBpFiU5m1Fu5KsI-46" style="shape=partialRectangle;html=1;whiteSpace=wrap;connectable=0;fillColor=none;top=0;left=0;bottom=0;right=0;overflow=hidden;pointerEvents=1;rounded=0;labelBackgroundColor=none;fontSize=15;fontColor=#FFFFFF;movable=0;resizable=0;rotatable=0;deletable=0;editable=0;" vertex="1" parent="4w_kfiBpFiU5m1Fu5KsI-41">
          <mxGeometry x="372" width="114" height="42" as="geometry">
            <mxRectangle width="114" height="42" as="alternateBounds" />
          </mxGeometry>
        </mxCell>
        <mxCell id="4w_kfiBpFiU5m1Fu5KsI-47" style="shape=partialRectangle;html=1;whiteSpace=wrap;connectable=0;fillColor=none;top=0;left=0;bottom=0;right=0;overflow=hidden;pointerEvents=1;rounded=0;labelBackgroundColor=none;fontSize=15;fontColor=#FFFFFF;movable=0;resizable=0;rotatable=0;deletable=0;editable=0;" vertex="1" parent="4w_kfiBpFiU5m1Fu5KsI-41">
          <mxGeometry x="486" width="129" height="42" as="geometry">
            <mxRectangle width="129" height="42" as="alternateBounds" />
          </mxGeometry>
        </mxCell>
        <mxCell id="odDNTdoTcmx5lw315tLp-37" value="" style="group;fontSize=18;fontStyle=1" parent="1" vertex="1" connectable="0">
          <mxGeometry x="40" y="305" width="190" height="660" as="geometry" />
        </mxCell>
        <mxCell id="HOcWKpLbceG71wfPBprw-132" value="Dashboard" style="rounded=0;whiteSpace=wrap;html=1;shadow=0;labelBackgroundColor=none;labelBorderColor=none;sketch=0;fontSize=18;fillColor=#0050ef;strokeColor=#001DBC;fontColor=#ffffff;movable=1;resizable=1;rotatable=1;deletable=1;editable=1;connectable=1;fontStyle=1" parent="odDNTdoTcmx5lw315tLp-37" vertex="1">
          <mxGeometry width="190" height="60" as="geometry" />
        </mxCell>
        <mxCell id="HOcWKpLbceG71wfPBprw-133" value="Rounds List" style="rounded=0;whiteSpace=wrap;html=1;shadow=0;labelBackgroundColor=none;labelBorderColor=none;sketch=0;fontSize=18;fillColor=#0050ef;strokeColor=#001DBC;fontColor=#ffffff;fontStyle=1" parent="odDNTdoTcmx5lw315tLp-37" vertex="1">
          <mxGeometry y="100" width="190" height="60" as="geometry" />
        </mxCell>
        <mxCell id="HOcWKpLbceG71wfPBprw-134" value="Service Matrix" style="rounded=0;whiteSpace=wrap;html=1;shadow=0;labelBackgroundColor=none;labelBorderColor=none;sketch=0;fontSize=18;fillColor=#0050ef;strokeColor=#001DBC;fontColor=#ffffff;fontStyle=1" parent="odDNTdoTcmx5lw315tLp-37" vertex="1">
          <mxGeometry y="200" width="190" height="60" as="geometry" />
        </mxCell>
        <mxCell id="HOcWKpLbceG71wfPBprw-135" value="Fulfilment Matrix" style="rounded=0;whiteSpace=wrap;html=1;shadow=0;labelBackgroundColor=none;labelBorderColor=none;sketch=0;fontSize=18;fillColor=#0050ef;strokeColor=#001DBC;fontColor=#ffffff;fontStyle=1" parent="odDNTdoTcmx5lw315tLp-37" vertex="1">
          <mxGeometry y="300" width="190" height="60" as="geometry" />
        </mxCell>
        <mxCell id="HOcWKpLbceG71wfPBprw-136" value="Round Detail" style="rounded=0;whiteSpace=wrap;html=1;shadow=0;labelBackgroundColor=none;labelBorderColor=none;sketch=0;fontSize=18;fillColor=#0050ef;strokeColor=#001DBC;fontColor=#ffffff;fontStyle=1" parent="odDNTdoTcmx5lw315tLp-37" vertex="1">
          <mxGeometry y="400" width="190" height="60" as="geometry" />
        </mxCell>
        <mxCell id="HOcWKpLbceG71wfPBprw-137" value="Round Admin" style="rounded=0;whiteSpace=wrap;html=1;shadow=0;labelBackgroundColor=none;labelBorderColor=none;sketch=0;fontSize=18;fillColor=#0050ef;strokeColor=#001DBC;fontColor=#ffffff;fontStyle=1" parent="odDNTdoTcmx5lw315tLp-37" vertex="1">
          <mxGeometry y="500" width="190" height="60" as="geometry" />
        </mxCell>
        <mxCell id="odDNTdoTcmx5lw315tLp-38" value="select round" style="strokeWidth=1;shadow=0;dashed=0;align=center;html=1;shape=mxgraph.mockup.forms.comboBox;align=left;fillColor2=#aaddff;mainText=;fontSize=17;spacingLeft=3;rounded=0;glass=0;dashPattern=1 4;labelBackgroundColor=none;labelBorderColor=none;sketch=0;fontColor=#D4E1F5;" parent="1" vertex="1">
          <mxGeometry x="42.88000000000011" y="200" width="213.5" height="30" as="geometry" />
        </mxCell>
        <mxCell id="HOcWKpLbceG71wfPBprw-160" value="select study/PM" style="strokeWidth=1;shadow=0;dashed=0;align=center;html=1;shape=mxgraph.mockup.forms.comboBox;align=left;fillColor2=#aaddff;mainText=;fontSize=17;spacingLeft=3;rounded=0;glass=0;dashPattern=1 4;labelBackgroundColor=none;labelBorderColor=none;sketch=0;" parent="1" vertex="1">
          <mxGeometry x="42.88000000000011" y="160" width="213.5" height="30" as="geometry" />
        </mxCell>
        <mxCell id="pDDyPRID0736S93xb8Xb-1" value="variable search" style="strokeWidth=1;shadow=0;dashed=0;align=center;html=1;shape=mxgraph.mockup.forms.comboBox;align=left;fillColor2=#aaddff;mainText=;fontSize=17;spacingLeft=3;rounded=0;glass=0;dashPattern=1 4;labelBackgroundColor=none;labelBorderColor=none;sketch=0;" parent="1" vertex="1">
          <mxGeometry x="42.88000000000011" y="125" width="213.5" height="30" as="geometry" />
        </mxCell>
        <mxCell id="HOcWKpLbceG71wfPBprw-159" value="select service" style="strokeWidth=1;shadow=0;dashed=0;align=center;html=1;shape=mxgraph.mockup.forms.comboBox;align=left;fillColor2=#aaddff;mainText=;fontSize=17;spacingLeft=3;rounded=0;glass=0;dashPattern=1 4;labelBackgroundColor=none;labelBorderColor=none;sketch=0;" parent="1" vertex="1">
          <mxGeometry x="43.63000000000011" y="90" width="212.75" height="30" as="geometry" />
        </mxCell>
        <mxCell id="4w_kfiBpFiU5m1Fu5KsI-105" style="edgeStyle=orthogonalEdgeStyle;rounded=0;orthogonalLoop=1;jettySize=auto;html=1;entryX=0.005;entryY=0.367;entryDx=0;entryDy=0;entryPerimeter=0;fontSize=17;" edge="1" parent="1" source="odDNTdoTcmx5lw315tLp-44" target="odDNTdoTcmx5lw315tLp-38">
          <mxGeometry relative="1" as="geometry" />
        </mxCell>
        <mxCell id="odDNTdoTcmx5lw315tLp-44" value="Allow contract round selection in Rounds List, e.g. R1 yields R1A, R1B, R1C, etc" style="text;html=1;strokeColor=default;fillColor=none;align=center;verticalAlign=middle;whiteSpace=wrap;rounded=0;fontColor=#4D4D4D;" parent="1" vertex="1">
          <mxGeometry x="-370" y="20" width="170" height="90" as="geometry" />
        </mxCell>
        <mxCell id="HOcWKpLbceG71wfPBprw-23" value="75 Active Rounds" style="rounded=1;whiteSpace=wrap;html=1;fontSize=15;labelBackgroundColor=none;fillColor=#b1ddf0;strokeColor=#10739e;fontStyle=1" parent="1" vertex="1">
          <mxGeometry x="1660" y="255.00000000000003" width="259.68" height="54.954347826086945" as="geometry" />
        </mxCell>
        <mxCell id="HOcWKpLbceG71wfPBprw-24" value="12 Completed Rounds" style="rounded=1;whiteSpace=wrap;html=1;fontSize=15;labelBackgroundColor=none;fillColor=#b1ddf0;strokeColor=#10739e;fontStyle=1" parent="1" vertex="1">
          <mxGeometry x="1970.15" y="255.00000000000003" width="271" height="54.954347826086945" as="geometry" />
        </mxCell>
        <mxCell id="HOcWKpLbceG71wfPBprw-143" value="215 Undelivered Compounds" style="rounded=1;whiteSpace=wrap;html=1;fontSize=15;labelBackgroundColor=none;fillColor=#b1ddf0;strokeColor=#10739e;fontStyle=1" parent="1" vertex="1">
          <mxGeometry x="1620" y="420.00043478260875" width="259.68" height="59.1304347826087" as="geometry" />
        </mxCell>
        <mxCell id="HOcWKpLbceG71wfPBprw-144" value="345 Delivered Compounds" style="rounded=1;whiteSpace=wrap;html=1;fontSize=15;labelBackgroundColor=none;fillColor=#b1ddf0;strokeColor=#10739e;fontStyle=1" parent="1" vertex="1">
          <mxGeometry x="1930.15" y="420.00043478260875" width="271" height="59.1304347826087" as="geometry" />
        </mxCell>
        <mxCell id="4w_kfiBpFiU5m1Fu5KsI-103" value="Filter" style="text;html=1;strokeColor=none;fillColor=none;align=center;verticalAlign=middle;whiteSpace=wrap;rounded=0;fontStyle=1;fontSize=17;" vertex="1" parent="1">
          <mxGeometry x="36.38" y="20" width="220" height="40" as="geometry" />
        </mxCell>
        <mxCell id="4w_kfiBpFiU5m1Fu5KsI-106" value="Month of April&lt;br&gt;Matrix Matched Protein Binding / CYP0323&lt;br&gt;Species = Rat, Strain = Sprague Dawley, Wistar" style="text;html=1;strokeColor=none;fillColor=none;align=center;verticalAlign=middle;whiteSpace=wrap;rounded=0;fontSize=25;" vertex="1" parent="1">
          <mxGeometry x="327.75" y="40" width="1012.25" height="60" as="geometry" />
        </mxCell>
        <mxCell id="4w_kfiBpFiU5m1Fu5KsI-131" value="month" style="strokeWidth=1;shadow=0;dashed=0;align=center;html=1;shape=mxgraph.mockup.forms.comboBox;align=left;fillColor2=#aaddff;mainText=;fontSize=17;spacingLeft=3;rounded=0;glass=0;dashPattern=1 4;labelBackgroundColor=none;labelBorderColor=none;sketch=0;" vertex="1" parent="1">
          <mxGeometry x="41.01000000000011" y="55" width="212.75" height="30" as="geometry" />
        </mxCell>
        <mxCell id="HOcWKpLbceG71wfPBprw-4" value="" style="rounded=0;whiteSpace=wrap;html=1;labelBackgroundColor=none;fontSize=18;fillColor=#eeeeee;strokeColor=#36393d;verticalAlign=top;fontStyle=1;labelPosition=center;verticalLabelPosition=middle;align=center;movable=1;resizable=1;rotatable=1;deletable=1;editable=1;connectable=1;" parent="1" vertex="1">
          <mxGeometry x="303" y="715" width="647" height="210" as="geometry" />
        </mxCell>
        <mxCell id="4w_kfiBpFiU5m1Fu5KsI-107" value="" style="verticalLabelPosition=bottom;shadow=0;dashed=0;align=center;html=1;verticalAlign=top;strokeWidth=1;shape=mxgraph.mockup.misc.progressBar;fillColor=#60a917;strokeColor=#2D7600;fillColor2=#99ddff;barPos=58.55;rounded=0;fontSize=18;fontColor=#ffffff;sketch=0;gradientDirection=west;" vertex="1" parent="1">
          <mxGeometry x="323" y="770" width="600" height="30" as="geometry" />
        </mxCell>
        <mxCell id="4w_kfiBpFiU5m1Fu5KsI-108" value="27 Completed" style="text;html=1;strokeColor=none;fillColor=none;align=left;verticalAlign=middle;whiteSpace=wrap;rounded=0;shadow=0;sketch=0;fontSize=18;fontColor=#0066CC;" vertex="1" parent="1">
          <mxGeometry x="323" y="735" width="130" height="60" as="geometry" />
        </mxCell>
        <mxCell id="4w_kfiBpFiU5m1Fu5KsI-109" value="21 Active" style="text;html=1;strokeColor=none;fillColor=none;align=right;verticalAlign=middle;whiteSpace=wrap;rounded=0;shadow=0;sketch=0;fontSize=18;fontColor=#0066CC;" vertex="1" parent="1">
          <mxGeometry x="843" y="735" width="80" height="60" as="geometry" />
        </mxCell>
        <mxCell id="4w_kfiBpFiU5m1Fu5KsI-128" value="" style="verticalLabelPosition=bottom;shadow=0;dashed=0;align=center;html=1;verticalAlign=top;strokeWidth=1;shape=mxgraph.mockup.misc.progressBar;fillColor=#60a917;strokeColor=#2D7600;fillColor2=#99ddff;barPos=50.848;rounded=0;fontSize=18;fontColor=#ffffff;sketch=0;gradientDirection=west;" vertex="1" parent="1">
          <mxGeometry x="323" y="860" width="600" height="30" as="geometry" />
        </mxCell>
        <mxCell id="4w_kfiBpFiU5m1Fu5KsI-129" value="97 Delivered" style="text;html=1;strokeColor=none;fillColor=none;align=left;verticalAlign=middle;whiteSpace=wrap;rounded=0;shadow=0;sketch=0;fontSize=18;fontColor=#0066CC;" vertex="1" parent="1">
          <mxGeometry x="323" y="825" width="121.45" height="60" as="geometry" />
        </mxCell>
        <mxCell id="4w_kfiBpFiU5m1Fu5KsI-130" value="91 Undelivered" style="text;html=1;strokeColor=none;fillColor=none;align=right;verticalAlign=middle;whiteSpace=wrap;rounded=0;shadow=0;sketch=0;fontSize=18;fontColor=#0066CC;" vertex="1" parent="1">
          <mxGeometry x="784.0499999999997" y="825" width="138.95" height="60" as="geometry" />
        </mxCell>
        <mxCell id="4w_kfiBpFiU5m1Fu5KsI-133" value="Rounds" style="text;html=1;strokeColor=none;fillColor=none;align=center;verticalAlign=middle;whiteSpace=wrap;rounded=0;shadow=0;sketch=0;fontSize=18;fontColor=#0066CC;" vertex="1" parent="1">
          <mxGeometry x="323" y="725" width="600" height="50" as="geometry" />
        </mxCell>
        <mxCell id="4w_kfiBpFiU5m1Fu5KsI-134" value="Compounds" style="text;html=1;strokeColor=none;fillColor=none;align=center;verticalAlign=middle;whiteSpace=wrap;rounded=0;shadow=0;sketch=0;fontSize=18;fontColor=#0066CC;" vertex="1" parent="1">
          <mxGeometry x="316.75" y="820" width="606.25" height="50" as="geometry" />
        </mxCell>
      </root>
    </mxGraphModel>
  </diagram>
</mxfile>
